<?xml version="1.0" encoding="UTF-8" standalone="no"?><svg xmlns="http://www.w3.org/2000/svg" xmlns:xlink="http://www.w3.org/1999/xlink" contentScriptType="application/ecmascript" contentStyleType="text/css" height="980px" preserveAspectRatio="none" style="width:3205px;height:980px;" version="1.1" viewBox="0 0 3205 980" width="3205px" zoomAndPan="magnify"><defs><filter height="300%" id="f1iojy66q15808" width="300%" x="-1" y="-1"><feGaussianBlur result="blurOut" stdDeviation="2.0"/><feColorMatrix in="blurOut" result="blurOut2" type="matrix" values="0 0 0 0 0 0 0 0 0 0 0 0 0 0 0 0 0 0 .4 0"/><feOffset dx="4.0" dy="4.0" in="blurOut2" result="blurOut3"/><feBlend in="SourceGraphic" in2="blurOut3" mode="normal"/></filter></defs><g><!--MD5=[27f772719433d509ddbc20ff768eba08]
cluster domain--><polygon fill="#FFFFFF" filter="url(#f1iojy66q15808)" points="22,24,85,24,92,46.2969,2103,46.2969,2103,647,22,647,22,24" style="stroke: #000000; stroke-width: 1.5;"/><line style="stroke: #000000; stroke-width: 1.5;" x1="22" x2="92" y1="46.2969" y2="46.2969"/><text fill="#000000" font-family="sans-serif" font-size="14" font-weight="bold" lengthAdjust="spacingAndGlyphs" textLength="57" x="26" y="38.9951">domain</text><!--MD5=[abf4be439d6478d16243c482721e5e80]
cluster data_source--><polygon fill="#FFFFFF" filter="url(#f1iojy66q15808)" points="1224,671,1326,671,1333,693.2969,3183,693.2969,3183,968,1224,968,1224,671" style="stroke: #000000; stroke-width: 1.5;"/><line style="stroke: #000000; stroke-width: 1.5;" x1="1224" x2="1333" y1="693.2969" y2="693.2969"/><text fill="#000000" font-family="sans-serif" font-size="14" font-weight="bold" lengthAdjust="spacingAndGlyphs" textLength="96" x="1228" y="685.9951">data_source</text><!--MD5=[3dcf69e4e87a10af00fce8354034ba4c]
cluster presentation--><polygon fill="#FFFFFF" filter="url(#f1iojy66q15808)" points="2127,56,2234,56,2241,78.2969,2329,78.2969,2329,168,2127,168,2127,56" style="stroke: #000000; stroke-width: 1.5;"/><line style="stroke: #000000; stroke-width: 1.5;" x1="2127" x2="2241" y1="78.2969" y2="78.2969"/><text fill="#000000" font-family="sans-serif" font-size="14" font-weight="bold" lengthAdjust="spacingAndGlyphs" textLength="101" x="2131" y="70.9951">presentation</text><!--MD5=[c2c452a7a354859f2e302dae76140049]
class domain.IController--><rect fill="#FEFECE" filter="url(#f1iojy66q15808)" height="73.6094" id="domain.IController" style="stroke: #A80036; stroke-width: 1.5;" width="175" x="1368.5" y="557"/><ellipse cx="1419.25" cy="573" fill="#B4A7E5" rx="11" ry="11" style="stroke: #A80036; stroke-width: 1.0;"/><path d="M1420.2031,569.7813 L1420.2031,576.2969 L1421.9219,576.2969 C1422.375,576.2969 1422.5156,576.3281 1422.6875,576.4531 C1422.9219,576.625 1423.0313,576.875 1423.0313,577.1563 C1423.0313,577.7188 1422.6719,578 1421.9219,578 L1416.7813,578 C1416.375,578 1416.1719,577.9531 1416.0156,577.8281 C1415.7969,577.6719 1415.6563,577.4063 1415.6563,577.1563 C1415.6563,576.8594 1415.8125,576.5781 1416.0625,576.4219 C1416.2188,576.3125 1416.3438,576.2969 1416.7813,576.2969 L1418.5,576.2969 L1418.5,569.7813 L1416.7813,569.7813 C1416.3594,569.7813 1416.1719,569.75 1416.0156,569.6406 C1415.7969,569.4688 1415.6563,569.2188 1415.6563,568.9375 C1415.6563,568.6563 1415.8125,568.3594 1416.0625,568.2031 C1416.2188,568.1094 1416.3438,568.0938 1416.7813,568.0938 L1421.9219,568.0938 C1422.375,568.0938 1422.5156,568.125 1422.6875,568.2344 C1422.9219,568.4063 1423.0313,568.6719 1423.0313,568.9375 C1423.0313,569.2344 1422.8906,569.5156 1422.625,569.6719 C1422.5,569.75 1422.3125,569.7813 1421.9219,569.7813 Z "/><text fill="#000000" font-family="sans-serif" font-size="12" font-style="italic" lengthAdjust="spacingAndGlyphs" textLength="65" x="1439.75" y="577.1543">IController</text><line style="stroke: #A80036; stroke-width: 1.5;" x1="1369.5" x2="1542.5" y1="589" y2="589"/><line style="stroke: #A80036; stroke-width: 1.5;" x1="1369.5" x2="1542.5" y1="597" y2="597"/><ellipse cx="1379.5" cy="608" fill="#84BE84" rx="3" ry="3" style="stroke: #038048; stroke-width: 1.0;"/><text fill="#000000" font-family="sans-serif" font-size="11" lengthAdjust="spacingAndGlyphs" textLength="149" x="1388.5" y="611.2104">retrieve() : MegaContainer</text><ellipse cx="1379.5" cy="620.8047" fill="#84BE84" rx="3" ry="3" style="stroke: #038048; stroke-width: 1.0;"/><text fill="#000000" font-family="sans-serif" font-size="11" lengthAdjust="spacingAndGlyphs" textLength="87" x="1388.5" y="624.0151">execute() : void</text><!--MD5=[d6b8d010d1959c46fed2e403f1571cd3]
class domain.IDiagram--><rect fill="#FEFECE" filter="url(#f1iojy66q15808)" height="60.8047" id="domain.IDiagram" style="stroke: #A80036; stroke-width: 1.5;" width="209" x="674.5" y="563.5"/><ellipse cx="746.75" cy="579.5" fill="#B4A7E5" rx="11" ry="11" style="stroke: #A80036; stroke-width: 1.0;"/><path d="M747.7031,576.2813 L747.7031,582.7969 L749.4219,582.7969 C749.875,582.7969 750.0156,582.8281 750.1875,582.9531 C750.4219,583.125 750.5313,583.375 750.5313,583.6563 C750.5313,584.2188 750.1719,584.5 749.4219,584.5 L744.2813,584.5 C743.875,584.5 743.6719,584.4531 743.5156,584.3281 C743.2969,584.1719 743.1563,583.9063 743.1563,583.6563 C743.1563,583.3594 743.3125,583.0781 743.5625,582.9219 C743.7188,582.8125 743.8438,582.7969 744.2813,582.7969 L746,582.7969 L746,576.2813 L744.2813,576.2813 C743.8594,576.2813 743.6719,576.25 743.5156,576.1406 C743.2969,575.9688 743.1563,575.7188 743.1563,575.4375 C743.1563,575.1563 743.3125,574.8594 743.5625,574.7031 C743.7188,574.6094 743.8438,574.5938 744.2813,574.5938 L749.4219,574.5938 C749.875,574.5938 750.0156,574.625 750.1875,574.7344 C750.4219,574.9063 750.5313,575.1719 750.5313,575.4375 C750.5313,575.7344 750.3906,576.0156 750.125,576.1719 C750,576.25 749.8125,576.2813 749.4219,576.2813 Z "/><text fill="#000000" font-family="sans-serif" font-size="12" font-style="italic" lengthAdjust="spacingAndGlyphs" textLength="56" x="767.25" y="583.6543">IDiagram</text><line style="stroke: #A80036; stroke-width: 1.5;" x1="675.5" x2="882.5" y1="595.5" y2="595.5"/><line style="stroke: #A80036; stroke-width: 1.5;" x1="675.5" x2="882.5" y1="603.5" y2="603.5"/><ellipse cx="685.5" cy="614.5" fill="#84BE84" rx="3" ry="3" style="stroke: #038048; stroke-width: 1.0;"/><text fill="#000000" font-family="sans-serif" font-size="11" lengthAdjust="spacingAndGlyphs" textLength="183" x="694.5" y="617.7104">concatenateFinalString() : String</text><!--MD5=[0427a128dbc338c1b049e7d2181bdc64]
class domain.IUMLDiagram--><rect fill="#FEFECE" filter="url(#f1iojy66q15808)" height="137.6328" id="domain.IUMLDiagram" style="stroke: #A80036; stroke-width: 1.5;" width="180" x="471" y="301.5"/><ellipse cx="515.75" cy="317.5" fill="#B4A7E5" rx="11" ry="11" style="stroke: #A80036; stroke-width: 1.0;"/><path d="M516.7031,314.2813 L516.7031,320.7969 L518.4219,320.7969 C518.875,320.7969 519.0156,320.8281 519.1875,320.9531 C519.4219,321.125 519.5313,321.375 519.5313,321.6563 C519.5313,322.2188 519.1719,322.5 518.4219,322.5 L513.2813,322.5 C512.875,322.5 512.6719,322.4531 512.5156,322.3281 C512.2969,322.1719 512.1563,321.9063 512.1563,321.6563 C512.1563,321.3594 512.3125,321.0781 512.5625,320.9219 C512.7188,320.8125 512.8438,320.7969 513.2813,320.7969 L515,320.7969 L515,314.2813 L513.2813,314.2813 C512.8594,314.2813 512.6719,314.25 512.5156,314.1406 C512.2969,313.9688 512.1563,313.7188 512.1563,313.4375 C512.1563,313.1563 512.3125,312.8594 512.5625,312.7031 C512.7188,312.6094 512.8438,312.5938 513.2813,312.5938 L518.4219,312.5938 C518.875,312.5938 519.0156,312.625 519.1875,312.7344 C519.4219,312.9063 519.5313,313.1719 519.5313,313.4375 C519.5313,313.7344 519.3906,314.0156 519.125,314.1719 C519,314.25 518.8125,314.2813 518.4219,314.2813 Z "/><text fill="#000000" font-family="sans-serif" font-size="12" font-style="italic" lengthAdjust="spacingAndGlyphs" textLength="82" x="536.25" y="321.6543">IUMLDiagram</text><line style="stroke: #A80036; stroke-width: 1.5;" x1="472" x2="650" y1="333.5" y2="333.5"/><line style="stroke: #A80036; stroke-width: 1.5;" x1="472" x2="650" y1="341.5" y2="341.5"/><ellipse cx="482" cy="352.5" fill="#84BE84" rx="3" ry="3" style="stroke: #038048; stroke-width: 1.0;"/><text fill="#000000" font-family="sans-serif" font-size="11" lengthAdjust="spacingAndGlyphs" textLength="154" x="491" y="355.7104">fillInterfaceMethods() : void</text><ellipse cx="482" cy="365.3047" fill="#84BE84" rx="3" ry="3" style="stroke: #038048; stroke-width: 1.0;"/><text fill="#000000" font-family="sans-serif" font-size="11" lengthAdjust="spacingAndGlyphs" textLength="89" x="491" y="368.5151">fillFields() : void</text><ellipse cx="482" cy="378.1094" fill="#84BE84" rx="3" ry="3" style="stroke: #038048; stroke-width: 1.0;"/><text fill="#000000" font-family="sans-serif" font-size="11" lengthAdjust="spacingAndGlyphs" textLength="82" x="491" y="381.3198">fillArgs() : void</text><ellipse cx="482" cy="390.9141" fill="#84BE84" rx="3" ry="3" style="stroke: #038048; stroke-width: 1.0;"/><text fill="#000000" font-family="sans-serif" font-size="11" lengthAdjust="spacingAndGlyphs" textLength="136" x="491" y="394.1245">fillClassMethods() : void</text><ellipse cx="482" cy="403.7188" fill="#84BE84" rx="3" ry="3" style="stroke: #038048; stroke-width: 1.0;"/><text fill="#000000" font-family="sans-serif" font-size="11" lengthAdjust="spacingAndGlyphs" textLength="124" x="491" y="406.9292">createRelation() : void</text><ellipse cx="482" cy="416.5234" fill="#84BE84" rx="3" ry="3" style="stroke: #038048; stroke-width: 1.0;"/><text fill="#000000" font-family="sans-serif" font-size="11" lengthAdjust="spacingAndGlyphs" textLength="111" x="491" y="419.7339">createClass() : void</text><ellipse cx="482" cy="429.3281" fill="#84BE84" rx="3" ry="3" style="stroke: #038048; stroke-width: 1.0;"/><text fill="#000000" font-family="sans-serif" font-size="11" lengthAdjust="spacingAndGlyphs" textLength="129" x="491" y="432.5386">createInterface() : void</text><!--MD5=[e0be7b4d810c052d510408c357e15c25]
class domain.IParser--><rect fill="#FEFECE" filter="url(#f1iojy66q15808)" height="73.6094" id="domain.IParser" style="stroke: #A80036; stroke-width: 1.5;" width="196" x="1137" y="557"/><ellipse cx="1209.25" cy="573" fill="#B4A7E5" rx="11" ry="11" style="stroke: #A80036; stroke-width: 1.0;"/><path d="M1210.2031,569.7813 L1210.2031,576.2969 L1211.9219,576.2969 C1212.375,576.2969 1212.5156,576.3281 1212.6875,576.4531 C1212.9219,576.625 1213.0313,576.875 1213.0313,577.1563 C1213.0313,577.7188 1212.6719,578 1211.9219,578 L1206.7813,578 C1206.375,578 1206.1719,577.9531 1206.0156,577.8281 C1205.7969,577.6719 1205.6563,577.4063 1205.6563,577.1563 C1205.6563,576.8594 1205.8125,576.5781 1206.0625,576.4219 C1206.2188,576.3125 1206.3438,576.2969 1206.7813,576.2969 L1208.5,576.2969 L1208.5,569.7813 L1206.7813,569.7813 C1206.3594,569.7813 1206.1719,569.75 1206.0156,569.6406 C1205.7969,569.4688 1205.6563,569.2188 1205.6563,568.9375 C1205.6563,568.6563 1205.8125,568.3594 1206.0625,568.2031 C1206.2188,568.1094 1206.3438,568.0938 1206.7813,568.0938 L1211.9219,568.0938 C1212.375,568.0938 1212.5156,568.125 1212.6875,568.2344 C1212.9219,568.4063 1213.0313,568.6719 1213.0313,568.9375 C1213.0313,569.2344 1212.8906,569.5156 1212.625,569.6719 C1212.5,569.75 1212.3125,569.7813 1211.9219,569.7813 Z "/><text fill="#000000" font-family="sans-serif" font-size="12" font-style="italic" lengthAdjust="spacingAndGlyphs" textLength="43" x="1229.75" y="577.1543">IParser</text><line style="stroke: #A80036; stroke-width: 1.5;" x1="1138" x2="1332" y1="589" y2="589"/><line style="stroke: #A80036; stroke-width: 1.5;" x1="1138" x2="1332" y1="597" y2="597"/><ellipse cx="1148" cy="608" fill="#84BE84" rx="3" ry="3" style="stroke: #038048; stroke-width: 1.0;"/><text fill="#000000" font-family="sans-serif" font-size="11" lengthAdjust="spacingAndGlyphs" textLength="166" x="1157" y="611.2104">generateIncompatible() : void</text><ellipse cx="1148" cy="620.8047" fill="#84BE84" rx="3" ry="3" style="stroke: #038048; stroke-width: 1.0;"/><text fill="#000000" font-family="sans-serif" font-size="11" lengthAdjust="spacingAndGlyphs" textLength="170" x="1157" y="624.0151">checkCompatibility() : boolean</text><!--MD5=[72e51ab5b44601a6d04929b805af996e]
class domain.ClassParser--><rect fill="#FEFECE" filter="url(#f1iojy66q15808)" height="86.4141" id="domain.ClassParser" style="stroke: #A80036; stroke-width: 1.5;" width="307" x="1095.5" y="78.5"/><ellipse cx="1207.75" cy="94.5" fill="#ADD1B2" rx="11" ry="11" style="stroke: #A80036; stroke-width: 1.0;"/><path d="M1210.0938,90.1719 L1210.2656,90.25 C1210.4844,89.9375 1210.6875,89.8438 1210.9844,89.8438 C1211.2813,89.8438 1211.5625,89.9844 1211.7188,90.25 C1211.8125,90.4063 1211.8281,90.5313 1211.8281,90.9688 L1211.8281,92.3906 C1211.8281,92.8125 1211.7969,93 1211.6875,93.1563 C1211.5156,93.375 1211.25,93.5156 1210.9844,93.5156 C1210.7656,93.5156 1210.5313,93.4063 1210.3906,93.2656 C1210.25,93.1406 1210.2188,93.0156 1210.1563,92.6094 C1210.0625,92.2031 1209.8906,91.9844 1209.4063,91.7031 C1208.9375,91.4531 1208.3281,91.2969 1207.75,91.2969 C1206.0156,91.2969 1204.7656,92.6094 1204.7656,94.3906 L1204.7656,95.4844 C1204.7656,97.1875 1206.0625,98.2813 1208.1094,98.2813 C1208.875,98.2813 1209.5625,98.1563 1209.9844,97.8906 C1210.1719,97.7969 1210.1719,97.7969 1210.625,97.3125 C1210.8125,97.125 1211.0156,97.0469 1211.2344,97.0469 C1211.7031,97.0469 1212.0938,97.4375 1212.0938,97.8906 C1212.0938,98.2813 1211.7656,98.7344 1211.1875,99.1406 C1210.4375,99.6875 1209.2813,99.9844 1208.0625,99.9844 C1205.1719,99.9844 1203.0625,98.0938 1203.0625,95.5156 L1203.0625,94.3906 C1203.0625,91.6719 1205.0625,89.5938 1207.6875,89.5938 C1208.5625,89.5938 1209.1563,89.7344 1210.0938,90.1719 Z "/><text fill="#000000" font-family="sans-serif" font-size="12" lengthAdjust="spacingAndGlyphs" textLength="74" x="1228.25" y="98.6543">ClassParser</text><line style="stroke: #A80036; stroke-width: 1.5;" x1="1096.5" x2="1401.5" y1="110.5" y2="110.5"/><polygon fill="none" points="1106.5,116.5,1110.5,120.5,1106.5,124.5,1102.5,120.5" style="stroke: #B38D22; stroke-width: 1.0;"/><text fill="#000000" font-family="sans-serif" font-size="11" lengthAdjust="spacingAndGlyphs" textLength="109" x="1115.5" y="124.7104">className : String</text><line style="stroke: #A80036; stroke-width: 1.5;" x1="1096.5" x2="1401.5" y1="131.3047" y2="131.3047"/><ellipse cx="1106.5" cy="142.3047" fill="#84BE84" rx="3" ry="3" style="stroke: #038048; stroke-width: 1.0;"/><text fill="#000000" font-family="sans-serif" font-size="11" lengthAdjust="spacingAndGlyphs" textLength="166" x="1115.5" y="145.5151">generateIncompatible() : void</text><ellipse cx="1106.5" cy="155.1094" fill="#84BE84" rx="3" ry="3" style="stroke: #038048; stroke-width: 1.0;"/><text fill="#000000" font-family="sans-serif" font-size="11" lengthAdjust="spacingAndGlyphs" textLength="281" x="1115.5" y="158.3198">checkCompatibility(String : parserType) : boolean</text><!--MD5=[0d8ca5c16965c8d67fec7f5741b72d5f]
class domain.BasicParser--><rect fill="#FEFECE" filter="url(#f1iojy66q15808)" height="48" id="domain.BasicParser" style="stroke: #A80036; stroke-width: 1.5;" width="106" x="1040" y="346.5"/><ellipse cx="1055" cy="362.5" fill="#ADD1B2" rx="11" ry="11" style="stroke: #A80036; stroke-width: 1.0;"/><path d="M1057.3438,358.1719 L1057.5156,358.25 C1057.7344,357.9375 1057.9375,357.8438 1058.2344,357.8438 C1058.5313,357.8438 1058.8125,357.9844 1058.9688,358.25 C1059.0625,358.4063 1059.0781,358.5313 1059.0781,358.9688 L1059.0781,360.3906 C1059.0781,360.8125 1059.0469,361 1058.9375,361.1563 C1058.7656,361.375 1058.5,361.5156 1058.2344,361.5156 C1058.0156,361.5156 1057.7813,361.4063 1057.6406,361.2656 C1057.5,361.1406 1057.4688,361.0156 1057.4063,360.6094 C1057.3125,360.2031 1057.1406,359.9844 1056.6563,359.7031 C1056.1875,359.4531 1055.5781,359.2969 1055,359.2969 C1053.2656,359.2969 1052.0156,360.6094 1052.0156,362.3906 L1052.0156,363.4844 C1052.0156,365.1875 1053.3125,366.2813 1055.3594,366.2813 C1056.125,366.2813 1056.8125,366.1563 1057.2344,365.8906 C1057.4219,365.7969 1057.4219,365.7969 1057.875,365.3125 C1058.0625,365.125 1058.2656,365.0469 1058.4844,365.0469 C1058.9531,365.0469 1059.3438,365.4375 1059.3438,365.8906 C1059.3438,366.2813 1059.0156,366.7344 1058.4375,367.1406 C1057.6875,367.6875 1056.5313,367.9844 1055.3125,367.9844 C1052.4219,367.9844 1050.3125,366.0938 1050.3125,363.5156 L1050.3125,362.3906 C1050.3125,359.6719 1052.3125,357.5938 1054.9375,357.5938 C1055.8125,357.5938 1056.4063,357.7344 1057.3438,358.1719 Z "/><text fill="#000000" font-family="sans-serif" font-size="12" lengthAdjust="spacingAndGlyphs" textLength="74" x="1069" y="366.6543">BasicParser</text><line style="stroke: #A80036; stroke-width: 1.5;" x1="1041" x2="1145" y1="378.5" y2="378.5"/><line style="stroke: #A80036; stroke-width: 1.5;" x1="1041" x2="1145" y1="386.5" y2="386.5"/><!--MD5=[28356d75ed76f8fcb908d3326c56f9c4]
class domain.DiagramUMLforPlantUML--><rect fill="#FEFECE" filter="url(#f1iojy66q15808)" height="124.8281" id="domain.DiagramUMLforPlantUML" style="stroke: #A80036; stroke-width: 1.5;" width="338" x="38" y="59"/><ellipse cx="127.25" cy="75" fill="#ADD1B2" rx="11" ry="11" style="stroke: #A80036; stroke-width: 1.0;"/><path d="M129.5938,70.6719 L129.7656,70.75 C129.9844,70.4375 130.1875,70.3438 130.4844,70.3438 C130.7813,70.3438 131.0625,70.4844 131.2188,70.75 C131.3125,70.9063 131.3281,71.0313 131.3281,71.4688 L131.3281,72.8906 C131.3281,73.3125 131.2969,73.5 131.1875,73.6563 C131.0156,73.875 130.75,74.0156 130.4844,74.0156 C130.2656,74.0156 130.0313,73.9063 129.8906,73.7656 C129.75,73.6406 129.7188,73.5156 129.6563,73.1094 C129.5625,72.7031 129.3906,72.4844 128.9063,72.2031 C128.4375,71.9531 127.8281,71.7969 127.25,71.7969 C125.5156,71.7969 124.2656,73.1094 124.2656,74.8906 L124.2656,75.9844 C124.2656,77.6875 125.5625,78.7813 127.6094,78.7813 C128.375,78.7813 129.0625,78.6563 129.4844,78.3906 C129.6719,78.2969 129.6719,78.2969 130.125,77.8125 C130.3125,77.625 130.5156,77.5469 130.7344,77.5469 C131.2031,77.5469 131.5938,77.9375 131.5938,78.3906 C131.5938,78.7813 131.2656,79.2344 130.6875,79.6406 C129.9375,80.1875 128.7813,80.4844 127.5625,80.4844 C124.6719,80.4844 122.5625,78.5938 122.5625,76.0156 L122.5625,74.8906 C122.5625,72.1719 124.5625,70.0938 127.1875,70.0938 C128.0625,70.0938 128.6563,70.2344 129.5938,70.6719 Z "/><text fill="#000000" font-family="sans-serif" font-size="12" lengthAdjust="spacingAndGlyphs" textLength="151" x="147.75" y="79.1543">DiagramUMLforPlantUML</text><line style="stroke: #A80036; stroke-width: 1.5;" x1="39" x2="375" y1="91" y2="91"/><rect fill="none" height="6" style="stroke: #C82930; stroke-width: 1.0;" width="6" x="46" y="99"/><text fill="#000000" font-family="sans-serif" font-size="11" lengthAdjust="spacingAndGlyphs" textLength="129" x="58" y="105.2104">MEGA : MegaContainer</text><rect fill="none" height="6" style="stroke: #C82930; stroke-width: 1.0;" width="6" x="46" y="111.8047"/><text fill="#000000" font-family="sans-serif" font-size="11" lengthAdjust="spacingAndGlyphs" textLength="111" x="58" y="118.0151">visibilityAccess : int</text><rect fill="none" height="6" style="stroke: #C82930; stroke-width: 1.0;" width="6" x="46" y="124.6094"/><text fill="#000000" font-family="sans-serif" font-size="11" lengthAdjust="spacingAndGlyphs" textLength="91" x="58" y="130.8198">parser : IParser</text><rect fill="none" height="6" style="stroke: #C82930; stroke-width: 1.0;" width="6" x="46" y="137.4141"/><text fill="#000000" font-family="sans-serif" font-size="11" lengthAdjust="spacingAndGlyphs" textLength="144" x="58" y="143.6245">finalString : StringBuilder</text><line style="stroke: #A80036; stroke-width: 1.5;" x1="39" x2="375" y1="150.2188" y2="150.2188"/><rect fill="#F24D5C" height="6" style="stroke: #C82930; stroke-width: 1.0;" width="6" x="46" y="158.2188"/><text fill="#000000" font-family="sans-serif" font-size="11" lengthAdjust="spacingAndGlyphs" textLength="260" x="58" y="164.4292">accessLevelSymbol(int : accessLevel) : String</text><ellipse cx="49" cy="174.0234" fill="#84BE84" rx="3" ry="3" style="stroke: #038048; stroke-width: 1.0;"/><text fill="#000000" font-family="sans-serif" font-size="11" lengthAdjust="spacingAndGlyphs" textLength="312" x="58" y="177.2339">concatenateFinalString(MegaContainer : MEGA) : String</text><!--MD5=[5c7203059bd6e0639f458f814aec3c31]
class domain.ParserDecorator--><rect fill="#FEFECE" filter="url(#f1iojy66q15808)" height="60.8047" id="domain.ParserDecorator" style="stroke: #A80036; stroke-width: 1.5;" width="136" x="1181" y="340"/><ellipse cx="1196" cy="356" fill="#ADD1B2" rx="11" ry="11" style="stroke: #A80036; stroke-width: 1.0;"/><path d="M1198.3438,351.6719 L1198.5156,351.75 C1198.7344,351.4375 1198.9375,351.3438 1199.2344,351.3438 C1199.5313,351.3438 1199.8125,351.4844 1199.9688,351.75 C1200.0625,351.9063 1200.0781,352.0313 1200.0781,352.4688 L1200.0781,353.8906 C1200.0781,354.3125 1200.0469,354.5 1199.9375,354.6563 C1199.7656,354.875 1199.5,355.0156 1199.2344,355.0156 C1199.0156,355.0156 1198.7813,354.9063 1198.6406,354.7656 C1198.5,354.6406 1198.4688,354.5156 1198.4063,354.1094 C1198.3125,353.7031 1198.1406,353.4844 1197.6563,353.2031 C1197.1875,352.9531 1196.5781,352.7969 1196,352.7969 C1194.2656,352.7969 1193.0156,354.1094 1193.0156,355.8906 L1193.0156,356.9844 C1193.0156,358.6875 1194.3125,359.7813 1196.3594,359.7813 C1197.125,359.7813 1197.8125,359.6563 1198.2344,359.3906 C1198.4219,359.2969 1198.4219,359.2969 1198.875,358.8125 C1199.0625,358.625 1199.2656,358.5469 1199.4844,358.5469 C1199.9531,358.5469 1200.3438,358.9375 1200.3438,359.3906 C1200.3438,359.7813 1200.0156,360.2344 1199.4375,360.6406 C1198.6875,361.1875 1197.5313,361.4844 1196.3125,361.4844 C1193.4219,361.4844 1191.3125,359.5938 1191.3125,357.0156 L1191.3125,355.8906 C1191.3125,353.1719 1193.3125,351.0938 1195.9375,351.0938 C1196.8125,351.0938 1197.4063,351.2344 1198.3438,351.6719 Z "/><text fill="#000000" font-family="sans-serif" font-size="12" lengthAdjust="spacingAndGlyphs" textLength="104" x="1210" y="360.1543">ParserDecorator</text><line style="stroke: #A80036; stroke-width: 1.5;" x1="1182" x2="1316" y1="372" y2="372"/><ellipse cx="1192" cy="383" fill="none" rx="3" ry="3" style="stroke: #038048; stroke-width: 1.0;"/><text fill="#000000" font-family="sans-serif" font-size="11" lengthAdjust="spacingAndGlyphs" textLength="91" x="1201" y="386.2104">parser : IParser</text><line style="stroke: #A80036; stroke-width: 1.5;" x1="1182" x2="1316" y1="392.8047" y2="392.8047"/><!--MD5=[e62dfb948f1be8af1e81eea247ecc502]
class domain.BlackListParser--><rect fill="#FEFECE" filter="url(#f1iojy66q15808)" height="112.0234" id="domain.BlackListParser" style="stroke: #A80036; stroke-width: 1.5;" width="307" x="753.5" y="65.5"/><ellipse cx="855.25" cy="81.5" fill="#ADD1B2" rx="11" ry="11" style="stroke: #A80036; stroke-width: 1.0;"/><path d="M857.5938,77.1719 L857.7656,77.25 C857.9844,76.9375 858.1875,76.8438 858.4844,76.8438 C858.7813,76.8438 859.0625,76.9844 859.2188,77.25 C859.3125,77.4063 859.3281,77.5313 859.3281,77.9688 L859.3281,79.3906 C859.3281,79.8125 859.2969,80 859.1875,80.1563 C859.0156,80.375 858.75,80.5156 858.4844,80.5156 C858.2656,80.5156 858.0313,80.4063 857.8906,80.2656 C857.75,80.1406 857.7188,80.0156 857.6563,79.6094 C857.5625,79.2031 857.3906,78.9844 856.9063,78.7031 C856.4375,78.4531 855.8281,78.2969 855.25,78.2969 C853.5156,78.2969 852.2656,79.6094 852.2656,81.3906 L852.2656,82.4844 C852.2656,84.1875 853.5625,85.2813 855.6094,85.2813 C856.375,85.2813 857.0625,85.1563 857.4844,84.8906 C857.6719,84.7969 857.6719,84.7969 858.125,84.3125 C858.3125,84.125 858.5156,84.0469 858.7344,84.0469 C859.2031,84.0469 859.5938,84.4375 859.5938,84.8906 C859.5938,85.2813 859.2656,85.7344 858.6875,86.1406 C857.9375,86.6875 856.7813,86.9844 855.5625,86.9844 C852.6719,86.9844 850.5625,85.0938 850.5625,82.5156 L850.5625,81.3906 C850.5625,78.6719 852.5625,76.5938 855.1875,76.5938 C856.0625,76.5938 856.6563,76.7344 857.5938,77.1719 Z "/><text fill="#000000" font-family="sans-serif" font-size="12" lengthAdjust="spacingAndGlyphs" textLength="95" x="875.75" y="85.6543">BlackListParser</text><line style="stroke: #A80036; stroke-width: 1.5;" x1="754.5" x2="1059.5" y1="97.5" y2="97.5"/><rect fill="none" height="6" style="stroke: #C82930; stroke-width: 1.0;" width="6" x="761.5" y="105.5"/><text fill="#000000" font-family="sans-serif" font-size="11" lengthAdjust="spacingAndGlyphs" textLength="132" x="773.5" y="111.7104">incompatible : HashSet</text><rect fill="none" height="6" style="stroke: #C82930; stroke-width: 1.0;" width="6" x="761.5" y="118.3047"/><text fill="#000000" font-family="sans-serif" font-size="11" lengthAdjust="spacingAndGlyphs" textLength="96" x="773.5" y="124.5151">fileName : String</text><line style="stroke: #A80036; stroke-width: 1.5;" x1="754.5" x2="1059.5" y1="131.1094" y2="131.1094"/><ellipse cx="764.5" cy="142.1094" fill="#84BE84" rx="3" ry="3" style="stroke: #038048; stroke-width: 1.0;"/><text fill="#000000" font-family="sans-serif" font-size="11" lengthAdjust="spacingAndGlyphs" textLength="104" x="773.5" y="145.3198">fileName() : String</text><ellipse cx="764.5" cy="154.9141" fill="#84BE84" rx="3" ry="3" style="stroke: #038048; stroke-width: 1.0;"/><text fill="#000000" font-family="sans-serif" font-size="11" lengthAdjust="spacingAndGlyphs" textLength="166" x="773.5" y="158.1245">generateIncompatible() : void</text><ellipse cx="764.5" cy="167.7188" fill="#84BE84" rx="3" ry="3" style="stroke: #038048; stroke-width: 1.0;"/><text fill="#000000" font-family="sans-serif" font-size="11" lengthAdjust="spacingAndGlyphs" textLength="281" x="773.5" y="170.9292">checkCompatibility(String : parserType) : boolean</text><!--MD5=[515c9961cd8270145017203ffd6d24e1]
class domain.ConstructParser--><rect fill="#FEFECE" filter="url(#f1iojy66q15808)" height="188.8516" id="domain.ConstructParser" style="stroke: #A80036; stroke-width: 1.5;" width="182" x="1365" y="276"/><ellipse cx="1401.6" cy="292" fill="#ADD1B2" rx="11" ry="11" style="stroke: #A80036; stroke-width: 1.0;"/><path d="M1403.9438,287.6719 L1404.1156,287.75 C1404.3344,287.4375 1404.5375,287.3438 1404.8344,287.3438 C1405.1313,287.3438 1405.4125,287.4844 1405.5688,287.75 C1405.6625,287.9063 1405.6781,288.0313 1405.6781,288.4688 L1405.6781,289.8906 C1405.6781,290.3125 1405.6469,290.5 1405.5375,290.6563 C1405.3656,290.875 1405.1,291.0156 1404.8344,291.0156 C1404.6156,291.0156 1404.3813,290.9063 1404.2406,290.7656 C1404.1,290.6406 1404.0688,290.5156 1404.0063,290.1094 C1403.9125,289.7031 1403.7406,289.4844 1403.2563,289.2031 C1402.7875,288.9531 1402.1781,288.7969 1401.6,288.7969 C1399.8656,288.7969 1398.6156,290.1094 1398.6156,291.8906 L1398.6156,292.9844 C1398.6156,294.6875 1399.9125,295.7813 1401.9594,295.7813 C1402.725,295.7813 1403.4125,295.6563 1403.8344,295.3906 C1404.0219,295.2969 1404.0219,295.2969 1404.475,294.8125 C1404.6625,294.625 1404.8656,294.5469 1405.0844,294.5469 C1405.5531,294.5469 1405.9438,294.9375 1405.9438,295.3906 C1405.9438,295.7813 1405.6156,296.2344 1405.0375,296.6406 C1404.2875,297.1875 1403.1313,297.4844 1401.9125,297.4844 C1399.0219,297.4844 1396.9125,295.5938 1396.9125,293.0156 L1396.9125,291.8906 C1396.9125,289.1719 1398.9125,287.0938 1401.5375,287.0938 C1402.4125,287.0938 1403.0063,287.2344 1403.9438,287.6719 Z "/><text fill="#000000" font-family="sans-serif" font-size="12" lengthAdjust="spacingAndGlyphs" textLength="102" x="1420.4" y="296.1543">ConstructParser</text><line style="stroke: #A80036; stroke-width: 1.5;" x1="1366" x2="1546" y1="308" y2="308"/><rect fill="none" height="6" style="stroke: #C82930; stroke-width: 1.0;" width="6" x="1373" y="316"/><text fill="#000000" font-family="sans-serif" font-size="11" lengthAdjust="spacingAndGlyphs" textLength="118" x="1385" y="322.2104">diagrams : HashMap</text><rect fill="none" height="6" style="stroke: #C82930; stroke-width: 1.0;" width="6" x="1373" y="328.8047"/><text fill="#000000" font-family="sans-serif" font-size="11" lengthAdjust="spacingAndGlyphs" textLength="133" x="1385" y="335.0151">outputFilename : String</text><rect fill="none" height="6" style="stroke: #C82930; stroke-width: 1.0;" width="6" x="1373" y="341.6094"/><text fill="#000000" font-family="sans-serif" font-size="11" lengthAdjust="spacingAndGlyphs" textLength="127" x="1385" y="347.8198">controllerType : String</text><rect fill="none" height="6" style="stroke: #C82930; stroke-width: 1.0;" width="6" x="1373" y="354.4141"/><text fill="#000000" font-family="sans-serif" font-size="11" lengthAdjust="spacingAndGlyphs" textLength="67" x="1385" y="360.6245">bp : IParser</text><rect fill="none" height="6" style="stroke: #C82930; stroke-width: 1.0;" width="6" x="1373" y="367.2188"/><text fill="#000000" font-family="sans-serif" font-size="11" lengthAdjust="spacingAndGlyphs" textLength="120" x="1385" y="373.4292">diagramType : String</text><rect fill="none" height="6" style="stroke: #C82930; stroke-width: 1.0;" width="6" x="1373" y="380.0234"/><text fill="#000000" font-family="sans-serif" font-size="11" lengthAdjust="spacingAndGlyphs" textLength="125" x="1385" y="386.2339">controllers : HashMap</text><rect fill="none" height="6" style="stroke: #C82930; stroke-width: 1.0;" width="6" x="1373" y="392.8281"/><text fill="#000000" font-family="sans-serif" font-size="11" lengthAdjust="spacingAndGlyphs" textLength="114" x="1385" y="399.0386">inputArgs : HashSet</text><rect fill="none" height="6" style="stroke: #C82930; stroke-width: 1.0;" width="6" x="1373" y="405.6328"/><text fill="#000000" font-family="sans-serif" font-size="11" lengthAdjust="spacingAndGlyphs" textLength="156" x="1385" y="411.8433">DEFAULT_OUTNAME : String</text><line style="stroke: #A80036; stroke-width: 1.5;" x1="1366" x2="1546" y1="418.4375" y2="418.4375"/><rect fill="#F24D5C" height="6" style="stroke: #C82930; stroke-width: 1.0;" width="6" x="1373" y="426.4375"/><text fill="#000000" font-family="sans-serif" font-size="11" lengthAdjust="spacingAndGlyphs" textLength="155" x="1385" y="432.6479">populateControllers() : void</text><ellipse cx="1376" cy="442.2422" fill="#84BE84" rx="3" ry="3" style="stroke: #038048; stroke-width: 1.0;"/><text fill="#000000" font-family="sans-serif" font-size="11" lengthAdjust="spacingAndGlyphs" textLength="117" x="1385" y="445.4526">beginParsing() : void</text><rect fill="#F24D5C" height="6" style="stroke: #C82930; stroke-width: 1.0;" width="6" x="1373" y="452.0469"/><text fill="#000000" font-family="sans-serif" font-size="11" lengthAdjust="spacingAndGlyphs" textLength="147" x="1385" y="458.2573">populateDiagrams() : void</text><!--MD5=[ac74e9ed3be4f3094bad14c89b8e43a7]
class domain.ASMController--><rect fill="#FEFECE" filter="url(#f1iojy66q15808)" height="252.875" id="domain.ASMController" style="stroke: #A80036; stroke-width: 1.5;" width="314" x="1677" y="244"/><ellipse cx="1786.25" cy="260" fill="#ADD1B2" rx="11" ry="11" style="stroke: #A80036; stroke-width: 1.0;"/><path d="M1788.5938,255.6719 L1788.7656,255.75 C1788.9844,255.4375 1789.1875,255.3438 1789.4844,255.3438 C1789.7813,255.3438 1790.0625,255.4844 1790.2188,255.75 C1790.3125,255.9063 1790.3281,256.0313 1790.3281,256.4688 L1790.3281,257.8906 C1790.3281,258.3125 1790.2969,258.5 1790.1875,258.6563 C1790.0156,258.875 1789.75,259.0156 1789.4844,259.0156 C1789.2656,259.0156 1789.0313,258.9063 1788.8906,258.7656 C1788.75,258.6406 1788.7188,258.5156 1788.6563,258.1094 C1788.5625,257.7031 1788.3906,257.4844 1787.9063,257.2031 C1787.4375,256.9531 1786.8281,256.7969 1786.25,256.7969 C1784.5156,256.7969 1783.2656,258.1094 1783.2656,259.8906 L1783.2656,260.9844 C1783.2656,262.6875 1784.5625,263.7813 1786.6094,263.7813 C1787.375,263.7813 1788.0625,263.6563 1788.4844,263.3906 C1788.6719,263.2969 1788.6719,263.2969 1789.125,262.8125 C1789.3125,262.625 1789.5156,262.5469 1789.7344,262.5469 C1790.2031,262.5469 1790.5938,262.9375 1790.5938,263.3906 C1790.5938,263.7813 1790.2656,264.2344 1789.6875,264.6406 C1788.9375,265.1875 1787.7813,265.4844 1786.5625,265.4844 C1783.6719,265.4844 1781.5625,263.5938 1781.5625,261.0156 L1781.5625,259.8906 C1781.5625,257.1719 1783.5625,255.0938 1786.1875,255.0938 C1787.0625,255.0938 1787.6563,255.2344 1788.5938,255.6719 Z "/><text fill="#000000" font-family="sans-serif" font-size="12" lengthAdjust="spacingAndGlyphs" textLength="87" x="1806.75" y="264.1543">ASMController</text><line style="stroke: #A80036; stroke-width: 1.5;" x1="1678" x2="1990" y1="276" y2="276"/><rect fill="none" height="6" style="stroke: #C82930; stroke-width: 1.0;" width="6" x="1685" y="284"/><text fill="#000000" font-family="sans-serif" font-size="11" lengthAdjust="spacingAndGlyphs" textLength="132" x="1697" y="290.2104">classNode : ClassNode</text><rect fill="none" height="6" style="stroke: #C82930; stroke-width: 1.0;" width="6" x="1685" y="296.8047"/><text fill="#000000" font-family="sans-serif" font-size="11" lengthAdjust="spacingAndGlyphs" textLength="122" x="1697" y="303.0151">reader : ClassReader</text><rect fill="none" height="6" style="stroke: #C82930; stroke-width: 1.0;" width="6" x="1685" y="309.6094"/><text fill="#000000" font-family="sans-serif" font-size="11" lengthAdjust="spacingAndGlyphs" textLength="81" x="1697" y="315.8198">input : IParser</text><rect fill="none" height="6" style="stroke: #C82930; stroke-width: 1.0;" width="6" x="1685" y="322.4141"/><text fill="#000000" font-family="sans-serif" font-size="11" lengthAdjust="spacingAndGlyphs" textLength="102" x="1697" y="328.6245">classNames : List</text><rect fill="none" height="6" style="stroke: #C82930; stroke-width: 1.0;" width="6" x="1685" y="335.2188"/><text fill="#000000" font-family="sans-serif" font-size="11" lengthAdjust="spacingAndGlyphs" textLength="114" x="1697" y="341.4292">blackListFile : String</text><rect fill="none" height="6" style="stroke: #C82930; stroke-width: 1.0;" width="6" x="1685" y="348.0234"/><text fill="#000000" font-family="sans-serif" font-size="11" lengthAdjust="spacingAndGlyphs" textLength="106" x="1697" y="354.2339">blacklist : HashSet</text><rect fill="none" height="6" style="stroke: #C82930; stroke-width: 1.0;" width="6" x="1685" y="360.8281"/><text fill="#000000" font-family="sans-serif" font-size="11" lengthAdjust="spacingAndGlyphs" textLength="111" x="1697" y="367.0386">recursion : boolean</text><rect fill="none" height="6" style="stroke: #C82930; stroke-width: 1.0;" width="6" x="1685" y="373.6328"/><text fill="#000000" font-family="sans-serif" font-size="11" lengthAdjust="spacingAndGlyphs" textLength="129" x="1697" y="379.8433">MEGA : MegaContainer</text><line style="stroke: #A80036; stroke-width: 1.5;" x1="1678" x2="1990" y1="386.4375" y2="386.4375"/><rect fill="#F24D5C" height="6" style="stroke: #C82930; stroke-width: 1.0;" width="6" x="1685" y="394.4375"/><text fill="#000000" font-family="sans-serif" font-size="11" lengthAdjust="spacingAndGlyphs" textLength="256" x="1697" y="400.6479">recursiveMethod(String : currentClass) : void</text><rect fill="#F24D5C" height="6" style="stroke: #C82930; stroke-width: 1.0;" width="6" x="1685" y="407.2422"/><text fill="#000000" font-family="sans-serif" font-size="11" lengthAdjust="spacingAndGlyphs" textLength="234" x="1697" y="413.4526">createAccessLevel(int : accessLevel) : int</text><rect fill="#F24D5C" height="6" style="stroke: #C82930; stroke-width: 1.0;" width="6" x="1685" y="420.0469"/><text fill="#000000" font-family="sans-serif" font-size="11" lengthAdjust="spacingAndGlyphs" textLength="288" x="1697" y="426.2573">methodArgumentGetter(List : methods) : HashMap</text><rect fill="#F24D5C" height="6" style="stroke: #C82930; stroke-width: 1.0;" width="6" x="1685" y="432.8516"/><text fill="#000000" font-family="sans-serif" font-size="11" lengthAdjust="spacingAndGlyphs" textLength="128" x="1697" y="439.062">parseRelations() : void</text><rect fill="#F24D5C" height="6" style="stroke: #C82930; stroke-width: 1.0;" width="6" x="1685" y="445.6563"/><text fill="#000000" font-family="sans-serif" font-size="11" lengthAdjust="spacingAndGlyphs" textLength="187" x="1697" y="451.8667">createType(String : type) : String</text><rect fill="#F24D5C" height="6" style="stroke: #C82930; stroke-width: 1.0;" width="6" x="1685" y="458.4609"/><text fill="#000000" font-family="sans-serif" font-size="11" lengthAdjust="spacingAndGlyphs" textLength="216" x="1697" y="464.6714">parseClass(String : givenClass) : void</text><rect fill="#F24D5C" height="6" style="stroke: #C82930; stroke-width: 1.0;" width="6" x="1685" y="471.2656"/><text fill="#000000" font-family="sans-serif" font-size="11" lengthAdjust="spacingAndGlyphs" textLength="279" x="1697" y="477.4761">nonRecursiveMethod(String : currentClass) : void</text><rect fill="#F24D5C" height="6" style="stroke: #C82930; stroke-width: 1.0;" width="6" x="1685" y="484.0703"/><text fill="#000000" font-family="sans-serif" font-size="11" lengthAdjust="spacingAndGlyphs" textLength="241" x="1697" y="490.2808">parseInterfaces(String : givenClass) : void</text><!--MD5=[64f5d621a7d5d6f22ffff122d3078cf6]
class domain.OutputParser--><rect fill="#FEFECE" filter="url(#f1iojy66q15808)" height="99.2188" id="domain.OutputParser" style="stroke: #A80036; stroke-width: 1.5;" width="307" x="411.5" y="72"/><ellipse cx="518.75" cy="88" fill="#ADD1B2" rx="11" ry="11" style="stroke: #A80036; stroke-width: 1.0;"/><path d="M521.0938,83.6719 L521.2656,83.75 C521.4844,83.4375 521.6875,83.3438 521.9844,83.3438 C522.2813,83.3438 522.5625,83.4844 522.7188,83.75 C522.8125,83.9063 522.8281,84.0313 522.8281,84.4688 L522.8281,85.8906 C522.8281,86.3125 522.7969,86.5 522.6875,86.6563 C522.5156,86.875 522.25,87.0156 521.9844,87.0156 C521.7656,87.0156 521.5313,86.9063 521.3906,86.7656 C521.25,86.6406 521.2188,86.5156 521.1563,86.1094 C521.0625,85.7031 520.8906,85.4844 520.4063,85.2031 C519.9375,84.9531 519.3281,84.7969 518.75,84.7969 C517.0156,84.7969 515.7656,86.1094 515.7656,87.8906 L515.7656,88.9844 C515.7656,90.6875 517.0625,91.7813 519.1094,91.7813 C519.875,91.7813 520.5625,91.6563 520.9844,91.3906 C521.1719,91.2969 521.1719,91.2969 521.625,90.8125 C521.8125,90.625 522.0156,90.5469 522.2344,90.5469 C522.7031,90.5469 523.0938,90.9375 523.0938,91.3906 C523.0938,91.7813 522.7656,92.2344 522.1875,92.6406 C521.4375,93.1875 520.2813,93.4844 519.0625,93.4844 C516.1719,93.4844 514.0625,91.5938 514.0625,89.0156 L514.0625,87.8906 C514.0625,85.1719 516.0625,83.0938 518.6875,83.0938 C519.5625,83.0938 520.1563,83.2344 521.0938,83.6719 Z "/><text fill="#000000" font-family="sans-serif" font-size="12" lengthAdjust="spacingAndGlyphs" textLength="84" x="539.25" y="92.1543">OutputParser</text><line style="stroke: #A80036; stroke-width: 1.5;" x1="412.5" x2="717.5" y1="104" y2="104"/><rect fill="none" height="6" style="stroke: #C82930; stroke-width: 1.0;" width="6" x="419.5" y="112"/><text fill="#000000" font-family="sans-serif" font-size="11" lengthAdjust="spacingAndGlyphs" textLength="96" x="431.5" y="118.2104">fileName : String</text><rect fill="none" height="6" style="stroke: #C82930; stroke-width: 1.0;" width="6" x="419.5" y="124.8047"/><text fill="#000000" font-family="sans-serif" font-size="11" lengthAdjust="spacingAndGlyphs" textLength="132" x="431.5" y="131.0151">incompatible : HashSet</text><line style="stroke: #A80036; stroke-width: 1.5;" x1="412.5" x2="717.5" y1="137.6094" y2="137.6094"/><ellipse cx="422.5" cy="148.6094" fill="#84BE84" rx="3" ry="3" style="stroke: #038048; stroke-width: 1.0;"/><text fill="#000000" font-family="sans-serif" font-size="11" lengthAdjust="spacingAndGlyphs" textLength="166" x="431.5" y="151.8198">generateIncompatible() : void</text><ellipse cx="422.5" cy="161.4141" fill="#84BE84" rx="3" ry="3" style="stroke: #038048; stroke-width: 1.0;"/><text fill="#000000" font-family="sans-serif" font-size="11" lengthAdjust="spacingAndGlyphs" textLength="281" x="431.5" y="164.6245">checkCompatibility(String : parserType) : boolean</text><!--MD5=[fed91d8354f9e6f307fba13a194fb45c]
class domain.AccessParser--><rect fill="#FEFECE" filter="url(#f1iojy66q15808)" height="99.2188" id="domain.AccessParser" style="stroke: #A80036; stroke-width: 1.5;" width="307" x="1779.5" y="72"/><ellipse cx="1886.25" cy="88" fill="#ADD1B2" rx="11" ry="11" style="stroke: #A80036; stroke-width: 1.0;"/><path d="M1888.5938,83.6719 L1888.7656,83.75 C1888.9844,83.4375 1889.1875,83.3438 1889.4844,83.3438 C1889.7813,83.3438 1890.0625,83.4844 1890.2188,83.75 C1890.3125,83.9063 1890.3281,84.0313 1890.3281,84.4688 L1890.3281,85.8906 C1890.3281,86.3125 1890.2969,86.5 1890.1875,86.6563 C1890.0156,86.875 1889.75,87.0156 1889.4844,87.0156 C1889.2656,87.0156 1889.0313,86.9063 1888.8906,86.7656 C1888.75,86.6406 1888.7188,86.5156 1888.6563,86.1094 C1888.5625,85.7031 1888.3906,85.4844 1887.9063,85.2031 C1887.4375,84.9531 1886.8281,84.7969 1886.25,84.7969 C1884.5156,84.7969 1883.2656,86.1094 1883.2656,87.8906 L1883.2656,88.9844 C1883.2656,90.6875 1884.5625,91.7813 1886.6094,91.7813 C1887.375,91.7813 1888.0625,91.6563 1888.4844,91.3906 C1888.6719,91.2969 1888.6719,91.2969 1889.125,90.8125 C1889.3125,90.625 1889.5156,90.5469 1889.7344,90.5469 C1890.2031,90.5469 1890.5938,90.9375 1890.5938,91.3906 C1890.5938,91.7813 1890.2656,92.2344 1889.6875,92.6406 C1888.9375,93.1875 1887.7813,93.4844 1886.5625,93.4844 C1883.6719,93.4844 1881.5625,91.5938 1881.5625,89.0156 L1881.5625,87.8906 C1881.5625,85.1719 1883.5625,83.0938 1886.1875,83.0938 C1887.0625,83.0938 1887.6563,83.2344 1888.5938,83.6719 Z "/><text fill="#000000" font-family="sans-serif" font-size="12" lengthAdjust="spacingAndGlyphs" textLength="85" x="1906.75" y="92.1543">AccessParser</text><line style="stroke: #A80036; stroke-width: 1.5;" x1="1780.5" x2="2085.5" y1="104" y2="104"/><polygon fill="none" points="1790.5,110,1794.5,114,1790.5,118,1786.5,114" style="stroke: #B38D22; stroke-width: 1.0;"/><text fill="#000000" font-family="sans-serif" font-size="11" lengthAdjust="spacingAndGlyphs" textLength="52" x="1799.5" y="118.2104">level : int</text><polygon fill="none" points="1790.5,122.8047,1794.5,126.8047,1790.5,130.8047,1786.5,126.8047" style="stroke: #B38D22; stroke-width: 1.0;"/><text fill="#000000" font-family="sans-serif" font-size="11" lengthAdjust="spacingAndGlyphs" textLength="132" x="1799.5" y="131.0151">incompatible : HashSet</text><line style="stroke: #A80036; stroke-width: 1.5;" x1="1780.5" x2="2085.5" y1="137.6094" y2="137.6094"/><ellipse cx="1790.5" cy="148.6094" fill="#84BE84" rx="3" ry="3" style="stroke: #038048; stroke-width: 1.0;"/><text fill="#000000" font-family="sans-serif" font-size="11" lengthAdjust="spacingAndGlyphs" textLength="166" x="1799.5" y="151.8198">generateIncompatible() : void</text><ellipse cx="1790.5" cy="161.4141" fill="#84BE84" rx="3" ry="3" style="stroke: #038048; stroke-width: 1.0;"/><text fill="#000000" font-family="sans-serif" font-size="11" lengthAdjust="spacingAndGlyphs" textLength="281" x="1799.5" y="164.6245">checkCompatibility(String : parserType) : boolean</text><!--MD5=[eb0e701c6a1e65e014f7e934004b7037]
class domain.RecursiveParser--><rect fill="#FEFECE" filter="url(#f1iojy66q15808)" height="112.0234" id="domain.RecursiveParser" style="stroke: #A80036; stroke-width: 1.5;" width="307" x="1437.5" y="65.5"/><ellipse cx="1536.25" cy="81.5" fill="#ADD1B2" rx="11" ry="11" style="stroke: #A80036; stroke-width: 1.0;"/><path d="M1538.5938,77.1719 L1538.7656,77.25 C1538.9844,76.9375 1539.1875,76.8438 1539.4844,76.8438 C1539.7813,76.8438 1540.0625,76.9844 1540.2188,77.25 C1540.3125,77.4063 1540.3281,77.5313 1540.3281,77.9688 L1540.3281,79.3906 C1540.3281,79.8125 1540.2969,80 1540.1875,80.1563 C1540.0156,80.375 1539.75,80.5156 1539.4844,80.5156 C1539.2656,80.5156 1539.0313,80.4063 1538.8906,80.2656 C1538.75,80.1406 1538.7188,80.0156 1538.6563,79.6094 C1538.5625,79.2031 1538.3906,78.9844 1537.9063,78.7031 C1537.4375,78.4531 1536.8281,78.2969 1536.25,78.2969 C1534.5156,78.2969 1533.2656,79.6094 1533.2656,81.3906 L1533.2656,82.4844 C1533.2656,84.1875 1534.5625,85.2813 1536.6094,85.2813 C1537.375,85.2813 1538.0625,85.1563 1538.4844,84.8906 C1538.6719,84.7969 1538.6719,84.7969 1539.125,84.3125 C1539.3125,84.125 1539.5156,84.0469 1539.7344,84.0469 C1540.2031,84.0469 1540.5938,84.4375 1540.5938,84.8906 C1540.5938,85.2813 1540.2656,85.7344 1539.6875,86.1406 C1538.9375,86.6875 1537.7813,86.9844 1536.5625,86.9844 C1533.6719,86.9844 1531.5625,85.0938 1531.5625,82.5156 L1531.5625,81.3906 C1531.5625,78.6719 1533.5625,76.5938 1536.1875,76.5938 C1537.0625,76.5938 1537.6563,76.7344 1538.5938,77.1719 Z "/><text fill="#000000" font-family="sans-serif" font-size="12" lengthAdjust="spacingAndGlyphs" textLength="101" x="1556.75" y="85.6543">RecursiveParser</text><line style="stroke: #A80036; stroke-width: 1.5;" x1="1438.5" x2="1743.5" y1="97.5" y2="97.5"/><polygon fill="none" points="1448.5,103.5,1452.5,107.5,1448.5,111.5,1444.5,107.5" style="stroke: #B38D22; stroke-width: 1.0;"/><text fill="#000000" font-family="sans-serif" font-size="11" lengthAdjust="spacingAndGlyphs" textLength="132" x="1457.5" y="111.7104">incompatible : HashSet</text><polygon fill="none" points="1448.5,117.3047,1444.5,123.3047,1452.5,123.3047" style="stroke: #1963A0; stroke-width: 1.0;"/><text fill="#000000" font-family="sans-serif" font-size="11" lengthAdjust="spacingAndGlyphs" textLength="102" x="1457.5" y="124.5151">enabled : boolean</text><line style="stroke: #A80036; stroke-width: 1.5;" x1="1438.5" x2="1743.5" y1="131.1094" y2="131.1094"/><ellipse cx="1448.5" cy="142.1094" fill="#84BE84" rx="3" ry="3" style="stroke: #038048; stroke-width: 1.0;"/><text fill="#000000" font-family="sans-serif" font-size="11" lengthAdjust="spacingAndGlyphs" textLength="166" x="1457.5" y="145.3198">generateIncompatible() : void</text><ellipse cx="1448.5" cy="154.9141" fill="#84BE84" rx="3" ry="3" style="stroke: #038048; stroke-width: 1.0;"/><text fill="#000000" font-family="sans-serif" font-size="11" lengthAdjust="spacingAndGlyphs" textLength="281" x="1457.5" y="158.1245">checkCompatibility(String : parserType) : boolean</text><ellipse cx="1448.5" cy="167.7188" fill="#84BE84" rx="3" ry="3" style="stroke: #038048; stroke-width: 1.0;"/><text fill="#000000" font-family="sans-serif" font-size="11" lengthAdjust="spacingAndGlyphs" textLength="110" x="1457.5" y="170.9292">enabled() : boolean</text><!--MD5=[73a7f301a9e6ffa3a6eabccf54d967cd]
class data_source.IContainer--><rect fill="#FEFECE" filter="url(#f1iojy66q15808)" height="60.8047" id="data_source.IContainer" style="stroke: #A80036; stroke-width: 1.5;" width="131" x="1973.5" y="891"/><ellipse cx="2003.8" cy="907" fill="#B4A7E5" rx="11" ry="11" style="stroke: #A80036; stroke-width: 1.0;"/><path d="M2004.7531,903.7813 L2004.7531,910.2969 L2006.4719,910.2969 C2006.925,910.2969 2007.0656,910.3281 2007.2375,910.4531 C2007.4719,910.625 2007.5813,910.875 2007.5813,911.1563 C2007.5813,911.7188 2007.2219,912 2006.4719,912 L2001.3313,912 C2000.925,912 2000.7219,911.9531 2000.5656,911.8281 C2000.3469,911.6719 2000.2063,911.4063 2000.2063,911.1563 C2000.2063,910.8594 2000.3625,910.5781 2000.6125,910.4219 C2000.7688,910.3125 2000.8938,910.2969 2001.3313,910.2969 L2003.05,910.2969 L2003.05,903.7813 L2001.3313,903.7813 C2000.9094,903.7813 2000.7219,903.75 2000.5656,903.6406 C2000.3469,903.4688 2000.2063,903.2188 2000.2063,902.9375 C2000.2063,902.6563 2000.3625,902.3594 2000.6125,902.2031 C2000.7688,902.1094 2000.8938,902.0938 2001.3313,902.0938 L2006.4719,902.0938 C2006.925,902.0938 2007.0656,902.125 2007.2375,902.2344 C2007.4719,902.4063 2007.5813,902.6719 2007.5813,902.9375 C2007.5813,903.2344 2007.4406,903.5156 2007.175,903.6719 C2007.05,903.75 2006.8625,903.7813 2006.4719,903.7813 Z "/><text fill="#000000" font-family="sans-serif" font-size="12" font-style="italic" lengthAdjust="spacingAndGlyphs" textLength="65" x="2021.2" y="911.1543">IContainer</text><line style="stroke: #A80036; stroke-width: 1.5;" x1="1974.5" x2="2103.5" y1="923" y2="923"/><line style="stroke: #A80036; stroke-width: 1.5;" x1="1974.5" x2="2103.5" y1="931" y2="931"/><ellipse cx="1984.5" cy="942" fill="#84BE84" rx="3" ry="3" style="stroke: #038048; stroke-width: 1.0;"/><text fill="#000000" font-family="sans-serif" font-size="11" lengthAdjust="spacingAndGlyphs" textLength="105" x="1993.5" y="945.2104">getName() : String</text><!--MD5=[3b1ebbf7846212008b11516b4c51ebe0]
class data_source.Field--><rect fill="#FEFECE" filter="url(#f1iojy66q15808)" height="86.4141" id="data_source.Field" style="stroke: #A80036; stroke-width: 1.5;" width="121" x="1780.5" y="725.5"/><ellipse cx="1822.5" cy="741.5" fill="#ADD1B2" rx="11" ry="11" style="stroke: #A80036; stroke-width: 1.0;"/><path d="M1824.8438,737.1719 L1825.0156,737.25 C1825.2344,736.9375 1825.4375,736.8438 1825.7344,736.8438 C1826.0313,736.8438 1826.3125,736.9844 1826.4688,737.25 C1826.5625,737.4063 1826.5781,737.5313 1826.5781,737.9688 L1826.5781,739.3906 C1826.5781,739.8125 1826.5469,740 1826.4375,740.1563 C1826.2656,740.375 1826,740.5156 1825.7344,740.5156 C1825.5156,740.5156 1825.2813,740.4063 1825.1406,740.2656 C1825,740.1406 1824.9688,740.0156 1824.9063,739.6094 C1824.8125,739.2031 1824.6406,738.9844 1824.1563,738.7031 C1823.6875,738.4531 1823.0781,738.2969 1822.5,738.2969 C1820.7656,738.2969 1819.5156,739.6094 1819.5156,741.3906 L1819.5156,742.4844 C1819.5156,744.1875 1820.8125,745.2813 1822.8594,745.2813 C1823.625,745.2813 1824.3125,745.1563 1824.7344,744.8906 C1824.9219,744.7969 1824.9219,744.7969 1825.375,744.3125 C1825.5625,744.125 1825.7656,744.0469 1825.9844,744.0469 C1826.4531,744.0469 1826.8438,744.4375 1826.8438,744.8906 C1826.8438,745.2813 1826.5156,745.7344 1825.9375,746.1406 C1825.1875,746.6875 1824.0313,746.9844 1822.8125,746.9844 C1819.9219,746.9844 1817.8125,745.0938 1817.8125,742.5156 L1817.8125,741.3906 C1817.8125,738.6719 1819.8125,736.5938 1822.4375,736.5938 C1823.3125,736.5938 1823.9063,736.7344 1824.8438,737.1719 Z "/><text fill="#000000" font-family="sans-serif" font-size="12" lengthAdjust="spacingAndGlyphs" textLength="29" x="1842.5" y="745.6543">Field</text><line style="stroke: #A80036; stroke-width: 1.5;" x1="1781.5" x2="1900.5" y1="757.5" y2="757.5"/><ellipse cx="1791.5" cy="768.5" fill="none" rx="3" ry="3" style="stroke: #038048; stroke-width: 1.0;"/><text fill="#000000" font-family="sans-serif" font-size="11" lengthAdjust="spacingAndGlyphs" textLength="70" x="1800.5" y="771.7104">type : String</text><ellipse cx="1791.5" cy="781.3047" fill="none" rx="3" ry="3" style="stroke: #038048; stroke-width: 1.0;"/><text fill="#000000" font-family="sans-serif" font-size="11" lengthAdjust="spacingAndGlyphs" textLength="78" x="1800.5" y="784.5151">name : String</text><ellipse cx="1791.5" cy="794.1094" fill="none" rx="3" ry="3" style="stroke: #038048; stroke-width: 1.0;"/><text fill="#000000" font-family="sans-serif" font-size="11" lengthAdjust="spacingAndGlyphs" textLength="95" x="1800.5" y="797.3198">accessLevel : int</text><line style="stroke: #A80036; stroke-width: 1.5;" x1="1781.5" x2="1900.5" y1="803.9141" y2="803.9141"/><!--MD5=[770e34d50501779306127ad251b31797]
class data_source.FileReader--><rect fill="#FEFECE" filter="url(#f1iojy66q15808)" height="73.6094" id="data_source.FileReader" style="stroke: #A80036; stroke-width: 1.5;" width="141" x="1240.5" y="731.5"/><ellipse cx="1274.85" cy="747.5" fill="#ADD1B2" rx="11" ry="11" style="stroke: #A80036; stroke-width: 1.0;"/><path d="M1277.1938,743.1719 L1277.3656,743.25 C1277.5844,742.9375 1277.7875,742.8438 1278.0844,742.8438 C1278.3813,742.8438 1278.6625,742.9844 1278.8188,743.25 C1278.9125,743.4063 1278.9281,743.5313 1278.9281,743.9688 L1278.9281,745.3906 C1278.9281,745.8125 1278.8969,746 1278.7875,746.1563 C1278.6156,746.375 1278.35,746.5156 1278.0844,746.5156 C1277.8656,746.5156 1277.6313,746.4063 1277.4906,746.2656 C1277.35,746.1406 1277.3188,746.0156 1277.2563,745.6094 C1277.1625,745.2031 1276.9906,744.9844 1276.5063,744.7031 C1276.0375,744.4531 1275.4281,744.2969 1274.85,744.2969 C1273.1156,744.2969 1271.8656,745.6094 1271.8656,747.3906 L1271.8656,748.4844 C1271.8656,750.1875 1273.1625,751.2813 1275.2094,751.2813 C1275.975,751.2813 1276.6625,751.1563 1277.0844,750.8906 C1277.2719,750.7969 1277.2719,750.7969 1277.725,750.3125 C1277.9125,750.125 1278.1156,750.0469 1278.3344,750.0469 C1278.8031,750.0469 1279.1938,750.4375 1279.1938,750.8906 C1279.1938,751.2813 1278.8656,751.7344 1278.2875,752.1406 C1277.5375,752.6875 1276.3813,752.9844 1275.1625,752.9844 C1272.2719,752.9844 1270.1625,751.0938 1270.1625,748.5156 L1270.1625,747.3906 C1270.1625,744.6719 1272.1625,742.5938 1274.7875,742.5938 C1275.6625,742.5938 1276.2563,742.7344 1277.1938,743.1719 Z "/><text fill="#000000" font-family="sans-serif" font-size="12" lengthAdjust="spacingAndGlyphs" textLength="66" x="1293.15" y="751.6543">FileReader</text><line style="stroke: #A80036; stroke-width: 1.5;" x1="1241.5" x2="1380.5" y1="763.5" y2="763.5"/><rect fill="none" height="6" style="stroke: #C82930; stroke-width: 1.0;" width="6" x="1248.5" y="771.5"/><text fill="#000000" font-family="sans-serif" font-size="11" lengthAdjust="spacingAndGlyphs" textLength="90" x="1260.5" y="777.7104">location : String</text><line style="stroke: #A80036; stroke-width: 1.5;" x1="1241.5" x2="1380.5" y1="784.3047" y2="784.3047"/><ellipse cx="1251.5" cy="795.3047" fill="#84BE84" rx="3" ry="3" style="stroke: #038048; stroke-width: 1.0;"/><text fill="#000000" font-family="sans-serif" font-size="11" lengthAdjust="spacingAndGlyphs" textLength="115" x="1260.5" y="798.5151">blockEm() : HashSet</text><!--MD5=[01e9415dde5098073ad230e86b30c79f]
class data_source.Class--><rect fill="#FEFECE" filter="url(#f1iojy66q15808)" height="124.8281" id="data_source.Class" style="stroke: #A80036; stroke-width: 1.5;" width="140" x="3027" y="706"/><ellipse cx="3076.25" cy="722" fill="#ADD1B2" rx="11" ry="11" style="stroke: #A80036; stroke-width: 1.0;"/><path d="M3078.5938,717.6719 L3078.7656,717.75 C3078.9844,717.4375 3079.1875,717.3438 3079.4844,717.3438 C3079.7813,717.3438 3080.0625,717.4844 3080.2188,717.75 C3080.3125,717.9063 3080.3281,718.0313 3080.3281,718.4688 L3080.3281,719.8906 C3080.3281,720.3125 3080.2969,720.5 3080.1875,720.6563 C3080.0156,720.875 3079.75,721.0156 3079.4844,721.0156 C3079.2656,721.0156 3079.0313,720.9063 3078.8906,720.7656 C3078.75,720.6406 3078.7188,720.5156 3078.6563,720.1094 C3078.5625,719.7031 3078.3906,719.4844 3077.9063,719.2031 C3077.4375,718.9531 3076.8281,718.7969 3076.25,718.7969 C3074.5156,718.7969 3073.2656,720.1094 3073.2656,721.8906 L3073.2656,722.9844 C3073.2656,724.6875 3074.5625,725.7813 3076.6094,725.7813 C3077.375,725.7813 3078.0625,725.6563 3078.4844,725.3906 C3078.6719,725.2969 3078.6719,725.2969 3079.125,724.8125 C3079.3125,724.625 3079.5156,724.5469 3079.7344,724.5469 C3080.2031,724.5469 3080.5938,724.9375 3080.5938,725.3906 C3080.5938,725.7813 3080.2656,726.2344 3079.6875,726.6406 C3078.9375,727.1875 3077.7813,727.4844 3076.5625,727.4844 C3073.6719,727.4844 3071.5625,725.5938 3071.5625,723.0156 L3071.5625,721.8906 C3071.5625,719.1719 3073.5625,717.0938 3076.1875,717.0938 C3077.0625,717.0938 3077.6563,717.2344 3078.5938,717.6719 Z "/><text fill="#000000" font-family="sans-serif" font-size="12" lengthAdjust="spacingAndGlyphs" textLength="33" x="3096.75" y="726.1543">Class</text><line style="stroke: #A80036; stroke-width: 1.5;" x1="3028" x2="3166" y1="738" y2="738"/><ellipse cx="3038" cy="749" fill="none" rx="3" ry="3" style="stroke: #038048; stroke-width: 1.0;"/><text fill="#000000" font-family="sans-serif" font-size="11" lengthAdjust="spacingAndGlyphs" textLength="114" x="3047" y="752.2104">methods : HashMap</text><ellipse cx="3038" cy="761.8047" fill="none" rx="3" ry="3" style="stroke: #038048; stroke-width: 1.0;"/><text fill="#000000" font-family="sans-serif" font-size="11" lengthAdjust="spacingAndGlyphs" textLength="95" x="3047" y="765.0151">accessLevel : int</text><ellipse cx="3038" cy="774.6094" fill="none" rx="3" ry="3" style="stroke: #038048; stroke-width: 1.0;"/><text fill="#000000" font-family="sans-serif" font-size="11" lengthAdjust="spacingAndGlyphs" textLength="91" x="3047" y="777.8198">fields : HashSet</text><ellipse cx="3038" cy="787.4141" fill="none" rx="3" ry="3" style="stroke: #038048; stroke-width: 1.0;"/><text fill="#000000" font-family="sans-serif" font-size="11" lengthAdjust="spacingAndGlyphs" textLength="78" x="3047" y="790.6245">name : String</text><ellipse cx="3038" cy="800.2188" fill="none" rx="3" ry="3" style="stroke: #038048; stroke-width: 1.0;"/><text fill="#000000" font-family="sans-serif" font-size="11" lengthAdjust="spacingAndGlyphs" textLength="109" x="3047" y="803.4292">superclass : String</text><ellipse cx="3038" cy="813.0234" fill="none" rx="3" ry="3" style="stroke: #038048; stroke-width: 1.0;"/><text fill="#000000" font-family="sans-serif" font-size="11" lengthAdjust="spacingAndGlyphs" textLength="110" x="3047" y="816.2339">inherited : HashSet</text><line style="stroke: #A80036; stroke-width: 1.5;" x1="3028" x2="3166" y1="822.8281" y2="822.8281"/><!--MD5=[73bbc3ca2ef1493032420855190cea57]
class data_source.MegaContainer--><rect fill="#FEFECE" filter="url(#f1iojy66q15808)" height="86.4141" id="data_source.MegaContainer" style="stroke: #A80036; stroke-width: 1.5;" width="311" x="2490.5" y="725.5"/><ellipse cx="2594.25" cy="741.5" fill="#ADD1B2" rx="11" ry="11" style="stroke: #A80036; stroke-width: 1.0;"/><path d="M2596.5938,737.1719 L2596.7656,737.25 C2596.9844,736.9375 2597.1875,736.8438 2597.4844,736.8438 C2597.7813,736.8438 2598.0625,736.9844 2598.2188,737.25 C2598.3125,737.4063 2598.3281,737.5313 2598.3281,737.9688 L2598.3281,739.3906 C2598.3281,739.8125 2598.2969,740 2598.1875,740.1563 C2598.0156,740.375 2597.75,740.5156 2597.4844,740.5156 C2597.2656,740.5156 2597.0313,740.4063 2596.8906,740.2656 C2596.75,740.1406 2596.7188,740.0156 2596.6563,739.6094 C2596.5625,739.2031 2596.3906,738.9844 2595.9063,738.7031 C2595.4375,738.4531 2594.8281,738.2969 2594.25,738.2969 C2592.5156,738.2969 2591.2656,739.6094 2591.2656,741.3906 L2591.2656,742.4844 C2591.2656,744.1875 2592.5625,745.2813 2594.6094,745.2813 C2595.375,745.2813 2596.0625,745.1563 2596.4844,744.8906 C2596.6719,744.7969 2596.6719,744.7969 2597.125,744.3125 C2597.3125,744.125 2597.5156,744.0469 2597.7344,744.0469 C2598.2031,744.0469 2598.5938,744.4375 2598.5938,744.8906 C2598.5938,745.2813 2598.2656,745.7344 2597.6875,746.1406 C2596.9375,746.6875 2595.7813,746.9844 2594.5625,746.9844 C2591.6719,746.9844 2589.5625,745.0938 2589.5625,742.5156 L2589.5625,741.3906 C2589.5625,738.6719 2591.5625,736.5938 2594.1875,736.5938 C2595.0625,736.5938 2595.6563,736.7344 2596.5938,737.1719 Z "/><text fill="#000000" font-family="sans-serif" font-size="12" lengthAdjust="spacingAndGlyphs" textLength="95" x="2614.75" y="745.6543">MegaContainer</text><line style="stroke: #A80036; stroke-width: 1.5;" x1="2491.5" x2="2800.5" y1="757.5" y2="757.5"/><ellipse cx="2501.5" cy="768.5" fill="none" rx="3" ry="3" style="stroke: #038048; stroke-width: 1.0;"/><text fill="#000000" font-family="sans-serif" font-size="11" lengthAdjust="spacingAndGlyphs" textLength="231" x="2510.5" y="771.7104">interfaces : HashMap&lt;String, Interface&gt;</text><ellipse cx="2501.5" cy="781.3047" fill="none" rx="3" ry="3" style="stroke: #038048; stroke-width: 1.0;"/><text fill="#000000" font-family="sans-serif" font-size="11" lengthAdjust="spacingAndGlyphs" textLength="200" x="2510.5" y="784.5151">classes : HashMap&lt;String, Class&gt;</text><ellipse cx="2501.5" cy="794.1094" fill="none" rx="3" ry="3" style="stroke: #038048; stroke-width: 1.0;"/><text fill="#000000" font-family="sans-serif" font-size="11" lengthAdjust="spacingAndGlyphs" textLength="285" x="2510.5" y="797.3198">relations : HashMap&lt;String, HashSet&lt;Relation&gt;&gt;</text><line style="stroke: #A80036; stroke-width: 1.5;" x1="2491.5" x2="2800.5" y1="803.9141" y2="803.9141"/><!--MD5=[91420770eb6ca8b5095ad924300556c3]
class data_source.Argument--><rect fill="#FEFECE" filter="url(#f1iojy66q15808)" height="73.6094" id="data_source.Argument" style="stroke: #A80036; stroke-width: 1.5;" width="104" x="2351" y="731.5"/><ellipse cx="2370.95" cy="747.5" fill="#ADD1B2" rx="11" ry="11" style="stroke: #A80036; stroke-width: 1.0;"/><path d="M2373.2938,743.1719 L2373.4656,743.25 C2373.6844,742.9375 2373.8875,742.8438 2374.1844,742.8438 C2374.4813,742.8438 2374.7625,742.9844 2374.9188,743.25 C2375.0125,743.4063 2375.0281,743.5313 2375.0281,743.9688 L2375.0281,745.3906 C2375.0281,745.8125 2374.9969,746 2374.8875,746.1563 C2374.7156,746.375 2374.45,746.5156 2374.1844,746.5156 C2373.9656,746.5156 2373.7313,746.4063 2373.5906,746.2656 C2373.45,746.1406 2373.4188,746.0156 2373.3563,745.6094 C2373.2625,745.2031 2373.0906,744.9844 2372.6063,744.7031 C2372.1375,744.4531 2371.5281,744.2969 2370.95,744.2969 C2369.2156,744.2969 2367.9656,745.6094 2367.9656,747.3906 L2367.9656,748.4844 C2367.9656,750.1875 2369.2625,751.2813 2371.3094,751.2813 C2372.075,751.2813 2372.7625,751.1563 2373.1844,750.8906 C2373.3719,750.7969 2373.3719,750.7969 2373.825,750.3125 C2374.0125,750.125 2374.2156,750.0469 2374.4344,750.0469 C2374.9031,750.0469 2375.2938,750.4375 2375.2938,750.8906 C2375.2938,751.2813 2374.9656,751.7344 2374.3875,752.1406 C2373.6375,752.6875 2372.4813,752.9844 2371.2625,752.9844 C2368.3719,752.9844 2366.2625,751.0938 2366.2625,748.5156 L2366.2625,747.3906 C2366.2625,744.6719 2368.2625,742.5938 2370.8875,742.5938 C2371.7625,742.5938 2372.3563,742.7344 2373.2938,743.1719 Z "/><text fill="#000000" font-family="sans-serif" font-size="12" lengthAdjust="spacingAndGlyphs" textLength="61" x="2386.05" y="751.6543">Argument</text><line style="stroke: #A80036; stroke-width: 1.5;" x1="2352" x2="2454" y1="763.5" y2="763.5"/><ellipse cx="2362" cy="774.5" fill="none" rx="3" ry="3" style="stroke: #038048; stroke-width: 1.0;"/><text fill="#000000" font-family="sans-serif" font-size="11" lengthAdjust="spacingAndGlyphs" textLength="78" x="2371" y="777.7104">name : String</text><ellipse cx="2362" cy="787.3047" fill="none" rx="3" ry="3" style="stroke: #038048; stroke-width: 1.0;"/><text fill="#000000" font-family="sans-serif" font-size="11" lengthAdjust="spacingAndGlyphs" textLength="70" x="2371" y="790.5151">type : String</text><line style="stroke: #A80036; stroke-width: 1.5;" x1="2352" x2="2454" y1="797.1094" y2="797.1094"/><!--MD5=[bb67435f9b50f3c7f8f1f96689ba47db]
class data_source.LogWriter--><rect fill="#FEFECE" filter="url(#f1iojy66q15808)" height="73.6094" id="data_source.LogWriter" style="stroke: #A80036; stroke-width: 1.5;" width="188" x="1937" y="731.5"/><ellipse cx="1997.25" cy="747.5" fill="#ADD1B2" rx="11" ry="11" style="stroke: #A80036; stroke-width: 1.0;"/><path d="M1999.5938,743.1719 L1999.7656,743.25 C1999.9844,742.9375 2000.1875,742.8438 2000.4844,742.8438 C2000.7813,742.8438 2001.0625,742.9844 2001.2188,743.25 C2001.3125,743.4063 2001.3281,743.5313 2001.3281,743.9688 L2001.3281,745.3906 C2001.3281,745.8125 2001.2969,746 2001.1875,746.1563 C2001.0156,746.375 2000.75,746.5156 2000.4844,746.5156 C2000.2656,746.5156 2000.0313,746.4063 1999.8906,746.2656 C1999.75,746.1406 1999.7188,746.0156 1999.6563,745.6094 C1999.5625,745.2031 1999.3906,744.9844 1998.9063,744.7031 C1998.4375,744.4531 1997.8281,744.2969 1997.25,744.2969 C1995.5156,744.2969 1994.2656,745.6094 1994.2656,747.3906 L1994.2656,748.4844 C1994.2656,750.1875 1995.5625,751.2813 1997.6094,751.2813 C1998.375,751.2813 1999.0625,751.1563 1999.4844,750.8906 C1999.6719,750.7969 1999.6719,750.7969 2000.125,750.3125 C2000.3125,750.125 2000.5156,750.0469 2000.7344,750.0469 C2001.2031,750.0469 2001.5938,750.4375 2001.5938,750.8906 C2001.5938,751.2813 2001.2656,751.7344 2000.6875,752.1406 C1999.9375,752.6875 1998.7813,752.9844 1997.5625,752.9844 C1994.6719,752.9844 1992.5625,751.0938 1992.5625,748.5156 L1992.5625,747.3906 C1992.5625,744.6719 1994.5625,742.5938 1997.1875,742.5938 C1998.0625,742.5938 1998.6563,742.7344 1999.5938,743.1719 Z "/><text fill="#000000" font-family="sans-serif" font-size="12" lengthAdjust="spacingAndGlyphs" textLength="59" x="2017.75" y="751.6543">LogWriter</text><line style="stroke: #A80036; stroke-width: 1.5;" x1="1938" x2="2124" y1="763.5" y2="763.5"/><rect fill="none" height="6" style="stroke: #C82930; stroke-width: 1.0;" width="6" x="1945" y="771.5"/><text fill="#000000" font-family="sans-serif" font-size="11" lengthAdjust="spacingAndGlyphs" textLength="90" x="1957" y="777.7104">location : String</text><line style="stroke: #A80036; stroke-width: 1.5;" x1="1938" x2="2124" y1="784.3047" y2="784.3047"/><ellipse cx="1948" cy="795.3047" fill="#84BE84" rx="3" ry="3" style="stroke: #038048; stroke-width: 1.0;"/><text fill="#000000" font-family="sans-serif" font-size="11" lengthAdjust="spacingAndGlyphs" textLength="162" x="1957" y="798.5151">writeText(String : text) : void</text><!--MD5=[3d9f749117090c3c9c52bb5e74b427b2]
class data_source.Relation--><rect fill="#FEFECE" filter="url(#f1iojy66q15808)" height="112.0234" id="data_source.Relation" style="stroke: #A80036; stroke-width: 1.5;" width="155" x="2160.5" y="712.5"/><ellipse cx="2208.25" cy="728.5" fill="#ADD1B2" rx="11" ry="11" style="stroke: #A80036; stroke-width: 1.0;"/><path d="M2210.5938,724.1719 L2210.7656,724.25 C2210.9844,723.9375 2211.1875,723.8438 2211.4844,723.8438 C2211.7813,723.8438 2212.0625,723.9844 2212.2188,724.25 C2212.3125,724.4063 2212.3281,724.5313 2212.3281,724.9688 L2212.3281,726.3906 C2212.3281,726.8125 2212.2969,727 2212.1875,727.1563 C2212.0156,727.375 2211.75,727.5156 2211.4844,727.5156 C2211.2656,727.5156 2211.0313,727.4063 2210.8906,727.2656 C2210.75,727.1406 2210.7188,727.0156 2210.6563,726.6094 C2210.5625,726.2031 2210.3906,725.9844 2209.9063,725.7031 C2209.4375,725.4531 2208.8281,725.2969 2208.25,725.2969 C2206.5156,725.2969 2205.2656,726.6094 2205.2656,728.3906 L2205.2656,729.4844 C2205.2656,731.1875 2206.5625,732.2813 2208.6094,732.2813 C2209.375,732.2813 2210.0625,732.1563 2210.4844,731.8906 C2210.6719,731.7969 2210.6719,731.7969 2211.125,731.3125 C2211.3125,731.125 2211.5156,731.0469 2211.7344,731.0469 C2212.2031,731.0469 2212.5938,731.4375 2212.5938,731.8906 C2212.5938,732.2813 2212.2656,732.7344 2211.6875,733.1406 C2210.9375,733.6875 2209.7813,733.9844 2208.5625,733.9844 C2205.6719,733.9844 2203.5625,732.0938 2203.5625,729.5156 L2203.5625,728.3906 C2203.5625,725.6719 2205.5625,723.5938 2208.1875,723.5938 C2209.0625,723.5938 2209.6563,723.7344 2210.5938,724.1719 Z "/><text fill="#000000" font-family="sans-serif" font-size="12" lengthAdjust="spacingAndGlyphs" textLength="51" x="2228.75" y="732.6543">Relation</text><line style="stroke: #A80036; stroke-width: 1.5;" x1="2161.5" x2="2314.5" y1="744.5" y2="744.5"/><ellipse cx="2171.5" cy="755.5" fill="none" rx="3" ry="3" style="stroke: #038048; stroke-width: 1.0;"/><text fill="#000000" font-family="sans-serif" font-size="11" lengthAdjust="spacingAndGlyphs" textLength="129" x="2180.5" y="758.7104">classFrom : IContainer</text><ellipse cx="2171.5" cy="768.3047" fill="none" rx="3" ry="3" style="stroke: #038048; stroke-width: 1.0;"/><text fill="#000000" font-family="sans-serif" font-size="11" lengthAdjust="spacingAndGlyphs" textLength="95" x="2180.5" y="771.5151">accessLevel : int</text><ellipse cx="2171.5" cy="781.1094" fill="none" rx="3" ry="3" style="stroke: #038048; stroke-width: 1.0;"/><text fill="#000000" font-family="sans-serif" font-size="11" lengthAdjust="spacingAndGlyphs" textLength="114" x="2180.5" y="784.3198">classTo : IContainer</text><ellipse cx="2171.5" cy="793.9141" fill="none" rx="3" ry="3" style="stroke: #038048; stroke-width: 1.0;"/><text fill="#000000" font-family="sans-serif" font-size="11" lengthAdjust="spacingAndGlyphs" textLength="78" x="2180.5" y="797.1245">name : String</text><ellipse cx="2171.5" cy="806.7188" fill="none" rx="3" ry="3" style="stroke: #038048; stroke-width: 1.0;"/><text fill="#000000" font-family="sans-serif" font-size="11" lengthAdjust="spacingAndGlyphs" textLength="70" x="2180.5" y="809.9292">type : String</text><line style="stroke: #A80036; stroke-width: 1.5;" x1="2161.5" x2="2314.5" y1="816.5234" y2="816.5234"/><!--MD5=[0495f3260a3c217caa20c6c29d261cc0]
class data_source.Method--><rect fill="#FEFECE" filter="url(#f1iojy66q15808)" height="99.2188" id="data_source.Method" style="stroke: #A80036; stroke-width: 1.5;" width="153" x="1592.5" y="719"/><ellipse cx="1641.25" cy="735" fill="#ADD1B2" rx="11" ry="11" style="stroke: #A80036; stroke-width: 1.0;"/><path d="M1643.5938,730.6719 L1643.7656,730.75 C1643.9844,730.4375 1644.1875,730.3438 1644.4844,730.3438 C1644.7813,730.3438 1645.0625,730.4844 1645.2188,730.75 C1645.3125,730.9063 1645.3281,731.0313 1645.3281,731.4688 L1645.3281,732.8906 C1645.3281,733.3125 1645.2969,733.5 1645.1875,733.6563 C1645.0156,733.875 1644.75,734.0156 1644.4844,734.0156 C1644.2656,734.0156 1644.0313,733.9063 1643.8906,733.7656 C1643.75,733.6406 1643.7188,733.5156 1643.6563,733.1094 C1643.5625,732.7031 1643.3906,732.4844 1642.9063,732.2031 C1642.4375,731.9531 1641.8281,731.7969 1641.25,731.7969 C1639.5156,731.7969 1638.2656,733.1094 1638.2656,734.8906 L1638.2656,735.9844 C1638.2656,737.6875 1639.5625,738.7813 1641.6094,738.7813 C1642.375,738.7813 1643.0625,738.6563 1643.4844,738.3906 C1643.6719,738.2969 1643.6719,738.2969 1644.125,737.8125 C1644.3125,737.625 1644.5156,737.5469 1644.7344,737.5469 C1645.2031,737.5469 1645.5938,737.9375 1645.5938,738.3906 C1645.5938,738.7813 1645.2656,739.2344 1644.6875,739.6406 C1643.9375,740.1875 1642.7813,740.4844 1641.5625,740.4844 C1638.6719,740.4844 1636.5625,738.5938 1636.5625,736.0156 L1636.5625,734.8906 C1636.5625,732.1719 1638.5625,730.0938 1641.1875,730.0938 C1642.0625,730.0938 1642.6563,730.2344 1643.5938,730.6719 Z "/><text fill="#000000" font-family="sans-serif" font-size="12" lengthAdjust="spacingAndGlyphs" textLength="47" x="1661.75" y="739.1543">Method</text><line style="stroke: #A80036; stroke-width: 1.5;" x1="1593.5" x2="1744.5" y1="751" y2="751"/><ellipse cx="1603.5" cy="762" fill="none" rx="3" ry="3" style="stroke: #038048; stroke-width: 1.0;"/><text fill="#000000" font-family="sans-serif" font-size="11" lengthAdjust="spacingAndGlyphs" textLength="78" x="1612.5" y="765.2104">name : String</text><ellipse cx="1603.5" cy="774.8047" fill="none" rx="3" ry="3" style="stroke: #038048; stroke-width: 1.0;"/><text fill="#000000" font-family="sans-serif" font-size="11" lengthAdjust="spacingAndGlyphs" textLength="108" x="1612.5" y="778.0151">returnType : String</text><ellipse cx="1603.5" cy="787.6094" fill="none" rx="3" ry="3" style="stroke: #038048; stroke-width: 1.0;"/><text fill="#000000" font-family="sans-serif" font-size="11" lengthAdjust="spacingAndGlyphs" textLength="95" x="1612.5" y="790.8198">accessLevel : int</text><ellipse cx="1603.5" cy="800.4141" fill="none" rx="3" ry="3" style="stroke: #038048; stroke-width: 1.0;"/><text fill="#000000" font-family="sans-serif" font-size="11" lengthAdjust="spacingAndGlyphs" textLength="127" x="1612.5" y="803.6245">parameters : HashSet</text><line style="stroke: #A80036; stroke-width: 1.5;" x1="1593.5" x2="1744.5" y1="810.2188" y2="810.2188"/><!--MD5=[48dfda6ebb39867922551bfbafa2b7a4]
class data_source.Interface--><rect fill="#FEFECE" filter="url(#f1iojy66q15808)" height="99.2188" id="data_source.Interface" style="stroke: #A80036; stroke-width: 1.5;" width="140" x="1417" y="719"/><ellipse cx="1455.4" cy="735" fill="#ADD1B2" rx="11" ry="11" style="stroke: #A80036; stroke-width: 1.0;"/><path d="M1457.7438,730.6719 L1457.9156,730.75 C1458.1344,730.4375 1458.3375,730.3438 1458.6344,730.3438 C1458.9313,730.3438 1459.2125,730.4844 1459.3688,730.75 C1459.4625,730.9063 1459.4781,731.0313 1459.4781,731.4688 L1459.4781,732.8906 C1459.4781,733.3125 1459.4469,733.5 1459.3375,733.6563 C1459.1656,733.875 1458.9,734.0156 1458.6344,734.0156 C1458.4156,734.0156 1458.1813,733.9063 1458.0406,733.7656 C1457.9,733.6406 1457.8688,733.5156 1457.8063,733.1094 C1457.7125,732.7031 1457.5406,732.4844 1457.0563,732.2031 C1456.5875,731.9531 1455.9781,731.7969 1455.4,731.7969 C1453.6656,731.7969 1452.4156,733.1094 1452.4156,734.8906 L1452.4156,735.9844 C1452.4156,737.6875 1453.7125,738.7813 1455.7594,738.7813 C1456.525,738.7813 1457.2125,738.6563 1457.6344,738.3906 C1457.8219,738.2969 1457.8219,738.2969 1458.275,737.8125 C1458.4625,737.625 1458.6656,737.5469 1458.8844,737.5469 C1459.3531,737.5469 1459.7438,737.9375 1459.7438,738.3906 C1459.7438,738.7813 1459.4156,739.2344 1458.8375,739.6406 C1458.0875,740.1875 1456.9313,740.4844 1455.7125,740.4844 C1452.8219,740.4844 1450.7125,738.5938 1450.7125,736.0156 L1450.7125,734.8906 C1450.7125,732.1719 1452.7125,730.0938 1455.3375,730.0938 C1456.2125,730.0938 1456.8063,730.2344 1457.7438,730.6719 Z "/><text fill="#000000" font-family="sans-serif" font-size="12" lengthAdjust="spacingAndGlyphs" textLength="56" x="1474.6" y="739.1543">Interface</text><line style="stroke: #A80036; stroke-width: 1.5;" x1="1418" x2="1556" y1="751" y2="751"/><ellipse cx="1428" cy="762" fill="none" rx="3" ry="3" style="stroke: #038048; stroke-width: 1.0;"/><text fill="#000000" font-family="sans-serif" font-size="11" lengthAdjust="spacingAndGlyphs" textLength="78" x="1437" y="765.2104">name : String</text><ellipse cx="1428" cy="774.8047" fill="none" rx="3" ry="3" style="stroke: #038048; stroke-width: 1.0;"/><text fill="#000000" font-family="sans-serif" font-size="11" lengthAdjust="spacingAndGlyphs" textLength="110" x="1437" y="778.0151">inherited : HashSet</text><ellipse cx="1428" cy="787.6094" fill="none" rx="3" ry="3" style="stroke: #038048; stroke-width: 1.0;"/><text fill="#000000" font-family="sans-serif" font-size="11" lengthAdjust="spacingAndGlyphs" textLength="95" x="1437" y="790.8198">accessLevel : int</text><ellipse cx="1428" cy="800.4141" fill="none" rx="3" ry="3" style="stroke: #038048; stroke-width: 1.0;"/><text fill="#000000" font-family="sans-serif" font-size="11" lengthAdjust="spacingAndGlyphs" textLength="114" x="1437" y="803.6245">methods : HashMap</text><line style="stroke: #A80036; stroke-width: 1.5;" x1="1418" x2="1556" y1="810.2188" y2="810.2188"/><!--MD5=[45f28004f8c42e097d63f8b7dc8408a6]
class data_source.ParseRelationships--><rect fill="#FEFECE" filter="url(#f1iojy66q15808)" height="99.2188" id="data_source.ParseRelationships" style="stroke: #A80036; stroke-width: 1.5;" width="155" x="2836.5" y="719"/><ellipse cx="2852.85" cy="735" fill="#ADD1B2" rx="11" ry="11" style="stroke: #A80036; stroke-width: 1.0;"/><path d="M2855.1938,730.6719 L2855.3656,730.75 C2855.5844,730.4375 2855.7875,730.3438 2856.0844,730.3438 C2856.3813,730.3438 2856.6625,730.4844 2856.8188,730.75 C2856.9125,730.9063 2856.9281,731.0313 2856.9281,731.4688 L2856.9281,732.8906 C2856.9281,733.3125 2856.8969,733.5 2856.7875,733.6563 C2856.6156,733.875 2856.35,734.0156 2856.0844,734.0156 C2855.8656,734.0156 2855.6313,733.9063 2855.4906,733.7656 C2855.35,733.6406 2855.3188,733.5156 2855.2563,733.1094 C2855.1625,732.7031 2854.9906,732.4844 2854.5063,732.2031 C2854.0375,731.9531 2853.4281,731.7969 2852.85,731.7969 C2851.1156,731.7969 2849.8656,733.1094 2849.8656,734.8906 L2849.8656,735.9844 C2849.8656,737.6875 2851.1625,738.7813 2853.2094,738.7813 C2853.975,738.7813 2854.6625,738.6563 2855.0844,738.3906 C2855.2719,738.2969 2855.2719,738.2969 2855.725,737.8125 C2855.9125,737.625 2856.1156,737.5469 2856.3344,737.5469 C2856.8031,737.5469 2857.1938,737.9375 2857.1938,738.3906 C2857.1938,738.7813 2856.8656,739.2344 2856.2875,739.6406 C2855.5375,740.1875 2854.3813,740.4844 2853.1625,740.4844 C2850.2719,740.4844 2848.1625,738.5938 2848.1625,736.0156 L2848.1625,734.8906 C2848.1625,732.1719 2850.1625,730.0938 2852.7875,730.0938 C2853.6625,730.0938 2854.2563,730.2344 2855.1938,730.6719 Z "/><text fill="#000000" font-family="sans-serif" font-size="12" lengthAdjust="spacingAndGlyphs" textLength="120" x="2867.15" y="739.1543">ParseRelationships</text><line style="stroke: #A80036; stroke-width: 1.5;" x1="2837.5" x2="2990.5" y1="751" y2="751"/><ellipse cx="2847.5" cy="762" fill="none" rx="3" ry="3" style="stroke: #038048; stroke-width: 1.0;"/><text fill="#000000" font-family="sans-serif" font-size="11" lengthAdjust="spacingAndGlyphs" textLength="129" x="2856.5" y="765.2104">MEGA : MegaContainer</text><line style="stroke: #A80036; stroke-width: 1.5;" x1="2837.5" x2="2990.5" y1="771.8047" y2="771.8047"/><text fill="#000000" font-family="sans-serif" font-size="11" lengthAdjust="spacingAndGlyphs" textLength="109" x="2842.5" y="786.0151">buildInheritances();</text><text fill="#000000" font-family="sans-serif" font-size="11" lengthAdjust="spacingAndGlyphs" textLength="111" x="2842.5" y="798.8198">buildAssociations();</text><text fill="#000000" font-family="sans-serif" font-size="11" lengthAdjust="spacingAndGlyphs" textLength="119" x="2842.5" y="811.6245">buildDependencies();</text><!--MD5=[b46647d0117f6ccedd267618a6834c1c]
class presentation.Main--><rect fill="#FEFECE" filter="url(#f1iojy66q15808)" height="60.8047" id="presentation.Main" style="stroke: #A80036; stroke-width: 1.5;" width="169" x="2143.5" y="91"/><ellipse cx="2209.25" cy="107" fill="#ADD1B2" rx="11" ry="11" style="stroke: #A80036; stroke-width: 1.0;"/><path d="M2211.5938,102.6719 L2211.7656,102.75 C2211.9844,102.4375 2212.1875,102.3438 2212.4844,102.3438 C2212.7813,102.3438 2213.0625,102.4844 2213.2188,102.75 C2213.3125,102.9063 2213.3281,103.0313 2213.3281,103.4688 L2213.3281,104.8906 C2213.3281,105.3125 2213.2969,105.5 2213.1875,105.6563 C2213.0156,105.875 2212.75,106.0156 2212.4844,106.0156 C2212.2656,106.0156 2212.0313,105.9063 2211.8906,105.7656 C2211.75,105.6406 2211.7188,105.5156 2211.6563,105.1094 C2211.5625,104.7031 2211.3906,104.4844 2210.9063,104.2031 C2210.4375,103.9531 2209.8281,103.7969 2209.25,103.7969 C2207.5156,103.7969 2206.2656,105.1094 2206.2656,106.8906 L2206.2656,107.9844 C2206.2656,109.6875 2207.5625,110.7813 2209.6094,110.7813 C2210.375,110.7813 2211.0625,110.6563 2211.4844,110.3906 C2211.6719,110.2969 2211.6719,110.2969 2212.125,109.8125 C2212.3125,109.625 2212.5156,109.5469 2212.7344,109.5469 C2213.2031,109.5469 2213.5938,109.9375 2213.5938,110.3906 C2213.5938,110.7813 2213.2656,111.2344 2212.6875,111.6406 C2211.9375,112.1875 2210.7813,112.4844 2209.5625,112.4844 C2206.6719,112.4844 2204.5625,110.5938 2204.5625,108.0156 L2204.5625,106.8906 C2204.5625,104.1719 2206.5625,102.0938 2209.1875,102.0938 C2210.0625,102.0938 2210.6563,102.2344 2211.5938,102.6719 Z "/><text fill="#000000" font-family="sans-serif" font-size="12" lengthAdjust="spacingAndGlyphs" textLength="29" x="2229.75" y="111.1543">Main</text><line style="stroke: #A80036; stroke-width: 1.5;" x1="2144.5" x2="2311.5" y1="123" y2="123"/><line style="stroke: #A80036; stroke-width: 1.5;" x1="2144.5" x2="2311.5" y1="131" y2="131"/><ellipse cx="2154.5" cy="142" fill="#84BE84" rx="3" ry="3" style="stroke: #038048; stroke-width: 1.0;"/><text fill="#000000" font-family="sans-serif" font-size="11" lengthAdjust="spacingAndGlyphs" textLength="143" x="2163.5" y="145.2104">main(String : args) : void</text><!--MD5=[f4907cf9541e1a88b526665121750162]
link domain.ASMController to data_source.ParseRelationships--><path d="M1991.1,391.233 C2195.05,422.571 2555.96,497.957 2819,663 C2840.43,676.448 2860.02,696.034 2875.77,714.626 " fill="none" id="domain.ASMController-&gt;data_source.ParseRelationships" style="stroke: #A80036; stroke-width: 1.0; stroke-dasharray: 7.0,7.0;"/><polygon fill="#A80036" points="2879.28,718.824,2876.5864,709.3506,2876.0771,714.9845,2870.4432,714.4753,2879.28,718.824" style="stroke: #A80036; stroke-width: 1.0;"/><!--MD5=[d2f5431a6f7312fb28315b345e04fb8a]
link domain.BasicParser to domain.IParser--><path d="M1104.75,394.714 C1117.98,420.324 1140.57,462.481 1163,497 C1172.44,511.532 1183.35,526.755 1193.77,540.687 " fill="none" id="domain.BasicParser-&gt;domain.IParser" style="stroke: #A80036; stroke-width: 1.0; stroke-dasharray: 7.0,7.0;"/><polygon fill="none" points="1199.57,536.751,1206.12,556.906,1188.43,545.23,1199.57,536.751" style="stroke: #A80036; stroke-width: 1.0;"/><!--MD5=[3743b7867fffa9eae43dc9b171c433d7]
link data_source.Method to data_source.IContainer--><path d="M1738.91,818.091 C1746.87,822.756 1755,827.169 1763,831 C1824.41,860.396 1897.9,883.699 1953.61,899.1488 " fill="none" id="data_source.Method-&gt;data_source.IContainer" style="stroke: #A80036; stroke-width: 1.0; stroke-dasharray: 7.0,7.0;"/><polygon fill="none" points="1955.8,892.4905,1973.27,904.4824,1952.13,906.0022,1955.8,892.4905" style="stroke: #A80036; stroke-width: 1.0;"/><!--MD5=[96dde0db9291ccb44e5f28313fff7740]
link domain.BlackListParser to domain.ParserDecorator--><path d="M1057.17,177.646 C1094.11,195.398 1131.94,217.49 1163,244 C1188.38,265.664 1209.65,296.511 1224.69,322.2 " fill="none" id="domain.BlackListParser-&gt;domain.ParserDecorator" style="stroke: #A80036; stroke-width: 1.0; stroke-dasharray: 7.0,7.0;"/><polygon fill="none" points="1230.88,318.914,1234.51,339.789,1218.65,325.738,1230.88,318.914" style="stroke: #A80036; stroke-width: 1.0;"/><!--MD5=[3f99010b9cde1991e698a014d2d0b705]
link data_source.MegaContainer to data_source.IContainer--><path d="M2534.59,811.648 C2514.25,818.612 2493.11,825.381 2473,831 C2353.69,864.337 2212.76,891.1459 2124.62,906.4496 " fill="none" id="data_source.MegaContainer-&gt;data_source.IContainer" style="stroke: #A80036; stroke-width: 1.0; stroke-dasharray: 7.0,7.0;"/><polygon fill="none" points="2125.64,913.3763,2104.75,909.8599,2123.27,899.578,2125.64,913.3763" style="stroke: #A80036; stroke-width: 1.0;"/><!--MD5=[cd99bf7d1897f4c4d0ed6e162da90b1d]
link data_source.Relation to data_source.IContainer--><path d="M2165.31,824.655 C2141.78,842.513 2116.08,862.012 2094.04,878.733 " fill="none" id="data_source.Relation-&gt;data_source.IContainer" style="stroke: #A80036; stroke-width: 1.0; stroke-dasharray: 7.0,7.0;"/><polygon fill="none" points="2098.17,884.3912,2078,890.9044,2089.7,873.238,2098.17,884.3912" style="stroke: #A80036; stroke-width: 1.0;"/><!--MD5=[eaab58b3688a68707276f8c8aa4e27e7]
link domain.ASMController to domain.IController--><path d="M1676.98,463.512 C1628.21,492.088 1576.52,522.38 1535.4,546.474 " fill="none" id="domain.ASMController-&gt;domain.IController" style="stroke: #A80036; stroke-width: 1.0; stroke-dasharray: 7.0,7.0;"/><polygon fill="none" points="1538.68,552.666,1517.88,556.738,1531.6,540.587,1538.68,552.666" style="stroke: #A80036; stroke-width: 1.0;"/><!--MD5=[17ecb195f69d17b92e3630eed2333efd]
link data_source.Field to data_source.IContainer--><path d="M1894.88,811.635 C1903.27,818.142 1911.86,824.768 1920,831 C1940.53,846.71 1963.18,863.803 1983.16,878.801 " fill="none" id="data_source.Field-&gt;data_source.IContainer" style="stroke: #A80036; stroke-width: 1.0; stroke-dasharray: 7.0,7.0;"/><polygon fill="none" points="1987.4,873.235,1999.21,890.8311,1979.01,884.4373,1987.4,873.235" style="stroke: #A80036; stroke-width: 1.0;"/><!--MD5=[ad16461e00ff9cd0aaa2abe9baa90d97]
link data_source.Argument to data_source.IContainer--><path d="M2367.83,805.566 C2357.32,814.855 2345.3,824.152 2333,831 C2267.46,867.503 2185.23,890.9075 2124.41,904.5899 " fill="none" id="data_source.Argument-&gt;data_source.IContainer" style="stroke: #A80036; stroke-width: 1.0; stroke-dasharray: 7.0,7.0;"/><polygon fill="none" points="2125.68,911.4752,2104.66,908.8621,2122.72,897.7917,2125.68,911.4752" style="stroke: #A80036; stroke-width: 1.0;"/><!--MD5=[13acffe6aeb8fae2d52a3d90cc889612]
link domain.DiagramUMLforPlantUML to domain.IUMLDiagram--><path d="M295.416,184.191 C343.634,217.835 403.67,259.724 454.456,295.16 " fill="none" id="domain.DiagramUMLforPlantUML-&gt;domain.IUMLDiagram" style="stroke: #A80036; stroke-width: 1.0; stroke-dasharray: 7.0,7.0;"/><polygon fill="none" points="458.547,289.479,470.944,306.664,450.536,300.961,458.547,289.479" style="stroke: #A80036; stroke-width: 1.0;"/><!--MD5=[adb6f20e757fe073ce2c2ad04b216dc6]
link data_source.Class to data_source.IContainer--><path d="M3026.93,822.985 C3021.05,826.057 3015.04,828.789 3009,831 C2847.5,890.1323 2330.34,911.7983 2124.6,918.206 " fill="none" id="data_source.Class-&gt;data_source.IContainer" style="stroke: #A80036; stroke-width: 1.0; stroke-dasharray: 7.0,7.0;"/><polygon fill="none" points="2124.73,925.205,2104.53,918.8131,2124.31,911.2114,2124.73,925.205" style="stroke: #A80036; stroke-width: 1.0;"/><!--MD5=[89078b2ff686390d2d6956f15368ddb7]
link domain.OutputParser to domain.ParserDecorator--><path d="M691.105,171.125 C706.1,175.931 721.299,180.365 736,184 C922.038,230.005 1000.105,143.045 1163,244 C1192.23,262.114 1213.97,294.259 1228.28,321.481 " fill="none" id="domain.OutputParser-&gt;domain.ParserDecorator" style="stroke: #A80036; stroke-width: 1.0; stroke-dasharray: 7.0,7.0;"/><polygon fill="none" points="1234.71,318.691,1237.19,339.734,1222.13,324.834,1234.71,318.691" style="stroke: #A80036; stroke-width: 1.0;"/><!--MD5=[7579f5d9f6914d0ab80d9eee3fe7dfb5]
link domain.AccessParser to domain.ParserDecorator--><path d="M1806.88,171.067 C1791.89,175.883 1776.69,180.335 1762,184 C1581.18,229.097 1508.2,150.479 1347,244 C1315.47,262.291 1290.43,295.031 1273.55,322.485 " fill="none" id="domain.AccessParser-&gt;domain.ParserDecorator" style="stroke: #A80036; stroke-width: 1.0; stroke-dasharray: 7.0,7.0;"/><polygon fill="none" points="1279.5,326.179,1263.42,339.98,1267.38,319.165,1279.5,326.179" style="stroke: #A80036; stroke-width: 1.0;"/><!--MD5=[0740ff201d7b79fd91f9177bedb9c1c1]
link data_source.Interface to data_source.IContainer--><path d="M1550.06,818.123 C1558.17,822.992 1566.59,827.441 1575,831 C1700.3,884.0121 1857.97,905.8997 1953.49,914.7417 " fill="none" id="data_source.Interface-&gt;data_source.IContainer" style="stroke: #A80036; stroke-width: 1.0; stroke-dasharray: 7.0,7.0;"/><polygon fill="none" points="1954.16,907.7734,1973.48,916.4844,1952.95,921.7205,1954.16,907.7734" style="stroke: #A80036; stroke-width: 1.0;"/><!--MD5=[81b2acfa17b87c0eef061fee8e4e8b34]
link domain.IUMLDiagram to domain.IDiagram--><path d="M628.186,439.765 C663.235,475.376 705.082,517.896 735.794,549.101 " fill="none" id="domain.IUMLDiagram-&gt;domain.IDiagram" style="stroke: #A80036; stroke-width: 1.0; stroke-dasharray: 7.0,7.0;"/><polygon fill="none" points="740.858,544.266,749.898,563.431,730.88,554.087,740.858,544.266" style="stroke: #A80036; stroke-width: 1.0;"/><!--MD5=[a36444778d53cfd537bc6a7a314257d6]
link domain.ClassParser to domain.ParserDecorator--><path d="M1249,164.68 C1249,207.642 1249,274.238 1249,319.749 " fill="none" id="domain.ClassParser-&gt;domain.ParserDecorator" style="stroke: #A80036; stroke-width: 1.0; stroke-dasharray: 7.0,7.0;"/><polygon fill="none" points="1256,319.905,1249,339.904,1242,319.904,1256,319.905" style="stroke: #A80036; stroke-width: 1.0;"/><!--MD5=[11e501e5fcce4dd1509f84165780e69f]
link domain.RecursiveParser to domain.ParserDecorator--><path d="M1453.76,177.546 C1417.06,195.709 1378.79,218.03 1347,244 C1319.78,266.237 1295.42,297.346 1277.8,323.028 " fill="none" id="domain.RecursiveParser-&gt;domain.ParserDecorator" style="stroke: #A80036; stroke-width: 1.0; stroke-dasharray: 7.0,7.0;"/><polygon fill="none" points="1283.6,326.949,1266.72,339.765,1271.92,319.223,1283.6,326.949" style="stroke: #A80036; stroke-width: 1.0;"/><!--MD5=[95c4c0b87d109d160b967395aa5f7057]
link domain.ParserDecorator to domain.IParser--><path d="M1247.11,401.372 C1244.93,435.899 1241.29,493.483 1238.57,536.531 " fill="none" id="domain.ParserDecorator-&gt;domain.IParser" style="stroke: #A80036; stroke-width: 1.0; stroke-dasharray: 7.0,7.0;"/><polygon fill="none" points="1245.55,537.109,1237.3,556.627,1231.57,536.226,1245.55,537.109" style="stroke: #A80036; stroke-width: 1.0;"/><!--MD5=[1df177475752d09bddb7a3ec29835b44]
link presentation.Main to domain.ConstructParser--><path d="M2177.24,152.127 C2155.11,163.8 2128.45,176.245 2103,184 C1912.52,242.042 1846.46,176.84 1659,244 C1621.76,257.341 1584.07,278.184 1551.44,299.078 " fill="none" id="presentation.Main-&gt;domain.ConstructParser" style="stroke: #A80036; stroke-width: 1.0;"/><polygon fill="#A80036" points="1547.07,301.892,1556.8041,300.3929,1551.2767,299.1895,1552.4801,293.6621,1547.07,301.892" style="stroke: #A80036; stroke-width: 1.0;"/><!--MD5=[810db9cf3d2f68af3eed976e4073c647]
link domain.ConstructParser to domain.IDiagram--><path d="M1378.62,465.214 C1364.89,477.46 1349.86,488.635 1334,497 C1258.54,536.808 1028.06,566.953 888.977,582.111 " fill="none" id="domain.ConstructParser-&gt;domain.IDiagram" style="stroke: #A80036; stroke-width: 1.0;"/><polygon fill="#A80036" points="883.657,582.688,893.0364,585.6925,888.6277,582.1479,892.1723,577.7393,883.657,582.688" style="stroke: #A80036; stroke-width: 1.0;"/><!--MD5=[b0d3b9eb917f90751a74669f13b94ba0]
link domain.ConstructParser to domain.IController--><path d="M1456,465.115 C1456,495.318 1456,527.264 1456,551.671 " fill="none" id="domain.ConstructParser-&gt;domain.IController" style="stroke: #A80036; stroke-width: 1.0;"/><polygon fill="#A80036" points="1456,556.762,1460,547.762,1456,551.762,1452,547.762,1456,556.762" style="stroke: #A80036; stroke-width: 1.0;"/><!--MD5=[78760f4b26babeda1de0ea9d89c851dc]
link domain.ConstructParser to domain.IParser--><path d="M1365.7,465.005 C1355.06,475.839 1344.32,486.693 1334,497 C1315.42,515.56 1294.58,535.842 1276.83,552.962 " fill="none" id="domain.ConstructParser-&gt;domain.IParser" style="stroke: #A80036; stroke-width: 1.0;"/><polygon fill="#A80036" points="1272.86,556.79,1282.1151,553.4222,1276.4592,553.3193,1276.5621,547.6634,1272.86,556.79" style="stroke: #A80036; stroke-width: 1.0;"/><!--MD5=[5894fd3b481562dd446ca0d4d9eee28a]
link domain.ConstructParser to data_source.LogWriter--><path d="M1547.01,428.187 C1676.95,509.209 1901.95,649.868 1919,663 C1944.59,682.707 1971.1,707.234 1991.91,727.572 " fill="none" id="domain.ConstructParser-&gt;data_source.LogWriter" style="stroke: #A80036; stroke-width: 1.0;"/><polygon fill="#A80036" points="1995.72,731.318,1992.0955,722.1603,1992.1503,727.8169,1986.4937,727.8718,1995.72,731.318" style="stroke: #A80036; stroke-width: 1.0;"/><!--MD5=[9e576dde246113214a8b841502561884]
link domain.IController to data_source.FileReader--><path d="M1425.6,631.162 C1401.92,659.337 1369.06,698.426 1344.6,727.528 " fill="none" id="domain.IController-&gt;data_source.FileReader" style="stroke: #A80036; stroke-width: 1.0;"/><polygon fill="#A80036" points="1341.36,731.386,1350.2132,727.0709,1344.5775,727.5587,1344.0896,721.923,1341.36,731.386" style="stroke: #A80036; stroke-width: 1.0;"/><!--MD5=[3df6bcd1f8472b7133434124a19141c3]
link domain.IController to data_source.IContainer--><path d="M1403.1,631.125 C1386.76,640.55 1368.24,649.576 1350,655 C1336.45,659.029 1232.68,652.693 1223,663 C1171.89,717.432 1173.16,775.399 1223,831 C1272.39,886.1005 1778.68,910.7028 1968.04,918.0271 " fill="none" id="domain.IController-&gt;data_source.IContainer" style="stroke: #A80036; stroke-width: 1.0;"/><polygon fill="#A80036" points="1973.28,918.2283,1964.4472,913.8715,1968.284,918.0283,1964.1272,921.8651,1973.28,918.2283" style="stroke: #A80036; stroke-width: 1.0;"/><!--MD5=[522988cba2bb60516ca32718782b8a9e]
@startuml
interface domain.IController {
+retrieve() : MegaContainer
+execute() : void
}
interface data_source.IContainer {
+getName() : String
}
interface domain.IDiagram {
+concatenateFinalString() : String
}
interface domain.IUMLDiagram {
+fillInterfaceMethods() : void
+fillFields() : void
+fillArgs() : void
+fillClassMethods() : void
+createRelation() : void
+createClass() : void
+createInterface() : void
}
interface domain.IParser {
+generateIncompatible() : void
+checkCompatibility() : boolean
}
class domain.ClassParser {
#className : String
+generateIncompatible() : void
+checkCompatibility(String : parserType) : boolean
}
class domain.BasicParser {
}
class data_source.Field {
+type : String
+name : String
+accessLevel : int
}
class domain.DiagramUMLforPlantUML {
-MEGA : MegaContainer
-visibilityAccess : int
-parser : IParser
-finalString : StringBuilder
-accessLevelSymbol(int : accessLevel) : String
+concatenateFinalString(MegaContainer : MEGA) : String
}
class data_source.FileReader {
-location : String
+blockEm() : HashSet
}
class data_source.Class {
+methods : HashMap
+accessLevel : int
+fields : HashSet
+name : String
+superclass : String
+inherited : HashSet
}
class domain.ParserDecorator {
+parser : IParser
}
class domain.BlackListParser {
-incompatible : HashSet
-fileName : String
+fileName() : String
+generateIncompatible() : void
+checkCompatibility(String : parserType) : boolean
}
class domain.ConstructParser {
-diagrams : HashMap
-outputFilename : String
-controllerType : String
-bp : IParser
-diagramType : String
-controllers : HashMap
-inputArgs : HashSet
-DEFAULT_OUTNAME : String
-populateControllers() : void
+beginParsing() : void
-populateDiagrams() : void
}
class data_source.MegaContainer {
+interfaces : HashMap<String, Interface>
+classes : HashMap<String, Class>
+relations : HashMap<String, HashSet<Relation>>
}
class domain.ASMController {
-classNode : ClassNode
-reader : ClassReader
-input : IParser
-classNames : List
-blackListFile : String
-blacklist : HashSet
-recursion : boolean
-MEGA : MegaContainer
-recursiveMethod(String : currentClass) : void
-createAccessLevel(int : accessLevel) : int
-methodArgumentGetter(List : methods) : HashMap
-parseRelations() : void
-createType(String : type) : String
-parseClass(String : givenClass) : void
-nonRecursiveMethod(String : currentClass) : void
-parseInterfaces(String : givenClass) : void
}
class data_source.Argument {
+name : String
+type : String
}
class domain.OutputParser {
-fileName : String
-incompatible : HashSet
+generateIncompatible() : void
+checkCompatibility(String : parserType) : boolean
}
class domain.AccessParser {
#level : int
#incompatible : HashSet
+generateIncompatible() : void
+checkCompatibility(String : parserType) : boolean
}
class data_source.LogWriter {
-location : String
+writeText(String : text) : void
}
class data_source.Relation {
+classFrom : IContainer
+accessLevel : int
+classTo : IContainer
+name : String
+type : String
}
class presentation.Main {
+main(String : args) : void
}
class domain.RecursiveParser {
#incompatible : HashSet
~enabled : boolean
+generateIncompatible() : void
+checkCompatibility(String : parserType) : boolean
+enabled() : boolean
}
class data_source.Method {
+name : String
+returnType : String
+accessLevel : int
+parameters : HashSet
}
class data_source.Interface {
+name : String
+inherited : HashSet
+accessLevel : int
+methods : HashMap
}

class data_source.ParseRelationships{
+MEGA : MegaContainer
buildInheritances();
buildAssociations();
buildDependencies();
}

domain.ASMController..>data_source.ParseRelationships
domain.BasicParser..|>domain.IParser
data_source.Method..|>data_source.IContainer
domain.BlackListParser..|>domain.ParserDecorator
data_source.MegaContainer..|>data_source.IContainer
data_source.Relation..|>data_source.IContainer
domain.ASMController..|>domain.IController
data_source.Field..|>data_source.IContainer
data_source.Argument..|>data_source.IContainer
domain.DiagramUMLforPlantUML..|>domain.IUMLDiagram
data_source.Class..|>data_source.IContainer
domain.OutputParser..|>domain.ParserDecorator
domain.AccessParser..|>domain.ParserDecorator
data_source.Interface..|>data_source.IContainer
domain.IUMLDiagram..|>domain.IDiagram
domain.ClassParser..|>domain.ParserDecorator
domain.RecursiveParser..|>domain.ParserDecorator
domain.ParserDecorator..|>domain.IParser

presentation.Main- ->domain.ConstructParser

domain.ConstructParser- ->domain.IDiagram
domain.ConstructParser- ->domain.IController
domain.ConstructParser- ->domain.IParser
domain.ConstructParser- ->data_source.LogWriter

domain.IController- ->data_source.FileReader
domain.IController- ->data_source.IContainer
@enduml

PlantUML version 1.2020.01beta5(Unknown compile time)
(GPL source distribution)
Java Runtime: Java(TM) SE Runtime Environment
JVM: Java HotSpot(TM) 64-Bit Server VM
Java Version: 1.7.0_25-b15
Operating System: Linux
Default Encoding: UTF-8
Language: en
Country: US
--></g></svg>