<?xml version="1.0" encoding="UTF-8" standalone="no"?><svg xmlns="http://www.w3.org/2000/svg" xmlns:xlink="http://www.w3.org/1999/xlink" contentScriptType="application/ecmascript" contentStyleType="text/css" height="1889px" preserveAspectRatio="none" style="width:1660px;height:1889px;" version="1.1" viewBox="0 0 1660 1889" width="1660px" zoomAndPan="magnify"><defs><filter height="300%" id="f100h9jptjxwkf" width="300%" x="-1" y="-1"><feGaussianBlur result="blurOut" stdDeviation="2.0"/><feColorMatrix in="blurOut" result="blurOut2" type="matrix" values="0 0 0 0 0 0 0 0 0 0 0 0 0 0 0 0 0 0 .4 0"/><feOffset dx="4.0" dy="4.0" in="blurOut2" result="blurOut3"/><feBlend in="SourceGraphic" in2="blurOut3" mode="normal"/></filter></defs><g><rect fill="#FFFFFF" filter="url(#f100h9jptjxwkf)" height="809.7188" style="stroke: #000000; stroke-width: 2.0;" width="956" x="356.5" y="230.0938"/><rect fill="#FFFFFF" filter="url(#f100h9jptjxwkf)" height="191.9297" style="stroke: #000000; stroke-width: 2.0;" width="739" x="376.5" y="429.0234"/><rect fill="#FFFFFF" filter="url(#f100h9jptjxwkf)" height="397.8594" style="stroke: #000000; stroke-width: 2.0;" width="936" x="366.5" y="634.9531"/><rect fill="#FFFFFF" filter="url(#f100h9jptjxwkf)" height="191.9297" style="stroke: #000000; stroke-width: 2.0;" width="916" x="376.5" y="833.8828"/><rect fill="#FFFFFF" filter="url(#f100h9jptjxwkf)" height="603.7891" style="stroke: #000000; stroke-width: 2.0;" width="1024" x="356.5" y="1053.8125"/><rect fill="#FFFFFF" filter="url(#f100h9jptjxwkf)" height="397.8594" style="stroke: #000000; stroke-width: 2.0;" width="936" x="366.5" y="1252.7422"/><rect fill="#FFFFFF" filter="url(#f100h9jptjxwkf)" height="191.9297" style="stroke: #000000; stroke-width: 2.0;" width="916" x="376.5" y="1451.6719"/><line style="stroke: #A80036; stroke-width: 1.0; stroke-dasharray: 5.0,5.0;" x1="33" x2="33" y1="38.2969" y2="1849.3984"/><line style="stroke: #A80036; stroke-width: 1.0; stroke-dasharray: 5.0,5.0;" x1="240" x2="240" y1="38.2969" y2="1849.3984"/><line style="stroke: #A80036; stroke-width: 1.0; stroke-dasharray: 5.0,5.0;" x1="443.5" x2="443.5" y1="38.2969" y2="1849.3984"/><line style="stroke: #A80036; stroke-width: 1.0; stroke-dasharray: 5.0,5.0;" x1="643.5" x2="643.5" y1="38.2969" y2="1849.3984"/><line style="stroke: #A80036; stroke-width: 1.0; stroke-dasharray: 5.0,5.0;" x1="760.5" x2="760.5" y1="38.2969" y2="1849.3984"/><line style="stroke: #A80036; stroke-width: 1.0; stroke-dasharray: 5.0,5.0;" x1="840.5" x2="840.5" y1="38.2969" y2="1849.3984"/><line style="stroke: #A80036; stroke-width: 1.0; stroke-dasharray: 5.0,5.0;" x1="901.5" x2="901.5" y1="38.2969" y2="1849.3984"/><line style="stroke: #A80036; stroke-width: 1.0; stroke-dasharray: 5.0,5.0;" x1="992.5" x2="992.5" y1="38.2969" y2="1849.3984"/><line style="stroke: #A80036; stroke-width: 1.0; stroke-dasharray: 5.0,5.0;" x1="1080.5" x2="1080.5" y1="38.2969" y2="1849.3984"/><line style="stroke: #A80036; stroke-width: 1.0; stroke-dasharray: 5.0,5.0;" x1="1150.5" x2="1150.5" y1="38.2969" y2="1849.3984"/><line style="stroke: #A80036; stroke-width: 1.0; stroke-dasharray: 5.0,5.0;" x1="1239.5" x2="1239.5" y1="38.2969" y2="1849.3984"/><line style="stroke: #A80036; stroke-width: 1.0; stroke-dasharray: 5.0,5.0;" x1="1331.5" x2="1331.5" y1="38.2969" y2="1849.3984"/><line style="stroke: #A80036; stroke-width: 1.0; stroke-dasharray: 5.0,5.0;" x1="1472.5" x2="1472.5" y1="38.2969" y2="1849.3984"/><line style="stroke: #A80036; stroke-width: 1.0; stroke-dasharray: 5.0,5.0;" x1="1614.5" x2="1614.5" y1="38.2969" y2="1849.3984"/><rect fill="#FEFECE" filter="url(#f100h9jptjxwkf)" height="30.2969" style="stroke: #A80036; stroke-width: 1.5;" width="46" x="8" y="3"/><text fill="#000000" font-family="sans-serif" font-size="14" lengthAdjust="spacingAndGlyphs" textLength="32" x="15" y="22.9951">Main</text><rect fill="#FEFECE" filter="url(#f100h9jptjxwkf)" height="30.2969" style="stroke: #A80036; stroke-width: 1.5;" width="46" x="8" y="1848.3984"/><text fill="#000000" font-family="sans-serif" font-size="14" lengthAdjust="spacingAndGlyphs" textLength="32" x="15" y="1868.3936">Main</text><rect fill="#FEFECE" filter="url(#f100h9jptjxwkf)" height="30.2969" style="stroke: #A80036; stroke-width: 1.5;" width="126" x="175" y="3"/><text fill="#000000" font-family="sans-serif" font-size="14" lengthAdjust="spacingAndGlyphs" textLength="112" x="182" y="22.9951">ConstructParser</text><rect fill="#FEFECE" filter="url(#f100h9jptjxwkf)" height="30.2969" style="stroke: #A80036; stroke-width: 1.5;" width="126" x="175" y="1848.3984"/><text fill="#000000" font-family="sans-serif" font-size="14" lengthAdjust="spacingAndGlyphs" textLength="112" x="182" y="1868.3936">ConstructParser</text><rect fill="#FEFECE" filter="url(#f100h9jptjxwkf)" height="30.2969" style="stroke: #A80036; stroke-width: 1.5;" width="111" x="386.5" y="3"/><text fill="#000000" font-family="sans-serif" font-size="14" lengthAdjust="spacingAndGlyphs" textLength="97" x="393.5" y="22.9951">ASMController</text><rect fill="#FEFECE" filter="url(#f100h9jptjxwkf)" height="30.2969" style="stroke: #A80036; stroke-width: 1.5;" width="111" x="386.5" y="1848.3984"/><text fill="#000000" font-family="sans-serif" font-size="14" lengthAdjust="spacingAndGlyphs" textLength="97" x="393.5" y="1868.3936">ASMController</text><rect fill="#FEFECE" filter="url(#f100h9jptjxwkf)" height="30.2969" style="stroke: #A80036; stroke-width: 1.5;" width="119" x="582.5" y="3"/><text fill="#000000" font-family="sans-serif" font-size="14" lengthAdjust="spacingAndGlyphs" textLength="105" x="589.5" y="22.9951">MegaContainer</text><rect fill="#FEFECE" filter="url(#f100h9jptjxwkf)" height="30.2969" style="stroke: #A80036; stroke-width: 1.5;" width="119" x="582.5" y="1848.3984"/><text fill="#000000" font-family="sans-serif" font-size="14" lengthAdjust="spacingAndGlyphs" textLength="105" x="589.5" y="1868.3936">MegaContainer</text><rect fill="#FEFECE" filter="url(#f100h9jptjxwkf)" height="30.2969" style="stroke: #A80036; stroke-width: 1.5;" width="87" x="715.5" y="3"/><text fill="#000000" font-family="sans-serif" font-size="14" lengthAdjust="spacingAndGlyphs" textLength="73" x="722.5" y="22.9951">FileReader</text><rect fill="#FEFECE" filter="url(#f100h9jptjxwkf)" height="30.2969" style="stroke: #A80036; stroke-width: 1.5;" width="87" x="715.5" y="1848.3984"/><text fill="#000000" font-family="sans-serif" font-size="14" lengthAdjust="spacingAndGlyphs" textLength="73" x="722.5" y="1868.3936">FileReader</text><rect fill="#FEFECE" filter="url(#f100h9jptjxwkf)" height="30.2969" style="stroke: #A80036; stroke-width: 1.5;" width="44" x="816.5" y="3"/><text fill="#000000" font-family="sans-serif" font-size="14" lengthAdjust="spacingAndGlyphs" textLength="30" x="823.5" y="22.9951">ASM</text><rect fill="#FEFECE" filter="url(#f100h9jptjxwkf)" height="30.2969" style="stroke: #A80036; stroke-width: 1.5;" width="44" x="816.5" y="1848.3984"/><text fill="#000000" font-family="sans-serif" font-size="14" lengthAdjust="spacingAndGlyphs" textLength="30" x="823.5" y="1868.3936">ASM</text><rect fill="#FEFECE" filter="url(#f100h9jptjxwkf)" height="30.2969" style="stroke: #A80036; stroke-width: 1.5;" width="51" x="874.5" y="3"/><text fill="#000000" font-family="sans-serif" font-size="14" lengthAdjust="spacingAndGlyphs" textLength="37" x="881.5" y="22.9951">Class</text><rect fill="#FEFECE" filter="url(#f100h9jptjxwkf)" height="30.2969" style="stroke: #A80036; stroke-width: 1.5;" width="51" x="874.5" y="1848.3984"/><text fill="#000000" font-family="sans-serif" font-size="14" lengthAdjust="spacingAndGlyphs" textLength="37" x="881.5" y="1868.3936">Class</text><rect fill="#FEFECE" filter="url(#f100h9jptjxwkf)" height="30.2969" style="stroke: #A80036; stroke-width: 1.5;" width="102" x="939.5" y="3"/><text fill="#000000" font-family="sans-serif" font-size="14" lengthAdjust="spacingAndGlyphs" textLength="88" x="946.5" y="22.9951">SMController</text><rect fill="#FEFECE" filter="url(#f100h9jptjxwkf)" height="30.2969" style="stroke: #A80036; stroke-width: 1.5;" width="102" x="939.5" y="1848.3984"/><text fill="#000000" font-family="sans-serif" font-size="14" lengthAdjust="spacingAndGlyphs" textLength="88" x="946.5" y="1868.3936">SMController</text><rect fill="#FEFECE" filter="url(#f100h9jptjxwkf)" height="30.2969" style="stroke: #A80036; stroke-width: 1.5;" width="46" x="1055.5" y="3"/><text fill="#000000" font-family="sans-serif" font-size="14" lengthAdjust="spacingAndGlyphs" textLength="32" x="1062.5" y="22.9951">Field</text><rect fill="#FEFECE" filter="url(#f100h9jptjxwkf)" height="30.2969" style="stroke: #A80036; stroke-width: 1.5;" width="46" x="1055.5" y="1848.3984"/><text fill="#000000" font-family="sans-serif" font-size="14" lengthAdjust="spacingAndGlyphs" textLength="32" x="1062.5" y="1868.3936">Field</text><rect fill="#FEFECE" filter="url(#f100h9jptjxwkf)" height="30.2969" style="stroke: #A80036; stroke-width: 1.5;" width="67" x="1115.5" y="3"/><text fill="#000000" font-family="sans-serif" font-size="14" lengthAdjust="spacingAndGlyphs" textLength="53" x="1122.5" y="22.9951">Method</text><rect fill="#FEFECE" filter="url(#f100h9jptjxwkf)" height="30.2969" style="stroke: #A80036; stroke-width: 1.5;" width="67" x="1115.5" y="1848.3984"/><text fill="#000000" font-family="sans-serif" font-size="14" lengthAdjust="spacingAndGlyphs" textLength="53" x="1122.5" y="1868.3936">Method</text><rect fill="#FEFECE" filter="url(#f100h9jptjxwkf)" height="30.2969" style="stroke: #A80036; stroke-width: 1.5;" width="82" x="1196.5" y="3"/><text fill="#000000" font-family="sans-serif" font-size="14" lengthAdjust="spacingAndGlyphs" textLength="68" x="1203.5" y="22.9951">Argument</text><rect fill="#FEFECE" filter="url(#f100h9jptjxwkf)" height="30.2969" style="stroke: #A80036; stroke-width: 1.5;" width="82" x="1196.5" y="1848.3984"/><text fill="#000000" font-family="sans-serif" font-size="14" lengthAdjust="spacingAndGlyphs" textLength="68" x="1203.5" y="1868.3936">Argument</text><rect fill="#FEFECE" filter="url(#f100h9jptjxwkf)" height="30.2969" style="stroke: #A80036; stroke-width: 1.5;" width="74" x="1292.5" y="3"/><text fill="#000000" font-family="sans-serif" font-size="14" lengthAdjust="spacingAndGlyphs" textLength="60" x="1299.5" y="22.9951">Interface</text><rect fill="#FEFECE" filter="url(#f100h9jptjxwkf)" height="30.2969" style="stroke: #A80036; stroke-width: 1.5;" width="74" x="1292.5" y="1848.3984"/><text fill="#000000" font-family="sans-serif" font-size="14" lengthAdjust="spacingAndGlyphs" textLength="60" x="1299.5" y="1868.3936">Interface</text><rect fill="#FEFECE" filter="url(#f100h9jptjxwkf)" height="30.2969" style="stroke: #A80036; stroke-width: 1.5;" width="181" x="1380.5" y="3"/><text fill="#000000" font-family="sans-serif" font-size="14" lengthAdjust="spacingAndGlyphs" textLength="167" x="1387.5" y="22.9951">DiagramUMLforPlantUML</text><rect fill="#FEFECE" filter="url(#f100h9jptjxwkf)" height="30.2969" style="stroke: #A80036; stroke-width: 1.5;" width="181" x="1380.5" y="1848.3984"/><text fill="#000000" font-family="sans-serif" font-size="14" lengthAdjust="spacingAndGlyphs" textLength="167" x="1387.5" y="1868.3936">DiagramUMLforPlantUML</text><rect fill="#FEFECE" filter="url(#f100h9jptjxwkf)" height="30.2969" style="stroke: #A80036; stroke-width: 1.5;" width="74" x="1575.5" y="3"/><text fill="#000000" font-family="sans-serif" font-size="14" lengthAdjust="spacingAndGlyphs" textLength="60" x="1582.5" y="22.9951">LogWrite</text><rect fill="#FEFECE" filter="url(#f100h9jptjxwkf)" height="30.2969" style="stroke: #A80036; stroke-width: 1.5;" width="74" x="1575.5" y="1848.3984"/><text fill="#000000" font-family="sans-serif" font-size="14" lengthAdjust="spacingAndGlyphs" textLength="60" x="1582.5" y="1868.3936">LogWrite</text><polygon fill="#A80036" points="228,65.4297,238,69.4297,228,73.4297,232,69.4297" style="stroke: #A80036; stroke-width: 1.0;"/><line style="stroke: #A80036; stroke-width: 1.0;" x1="33" x2="234" y1="69.4297" y2="69.4297"/><text fill="#000000" font-family="sans-serif" font-size="13" lengthAdjust="spacingAndGlyphs" textLength="92" x="40" y="64.3638">beginParsing()</text><polygon fill="#A80036" points="432,94.5625,442,98.5625,432,102.5625,436,98.5625" style="stroke: #A80036; stroke-width: 1.0;"/><line style="stroke: #A80036; stroke-width: 1.0;" x1="240" x2="438" y1="98.5625" y2="98.5625"/><text fill="#000000" font-family="sans-serif" font-size="13" lengthAdjust="spacingAndGlyphs" textLength="101" x="247" y="93.4966">ASMController()</text><polygon fill="#A80036" points="632,123.6953,642,127.6953,632,131.6953,636,127.6953" style="stroke: #A80036; stroke-width: 1.0;"/><line style="stroke: #A80036; stroke-width: 1.0;" x1="444" x2="638" y1="127.6953" y2="127.6953"/><text fill="#000000" font-family="sans-serif" font-size="13" lengthAdjust="spacingAndGlyphs" textLength="107" x="451" y="122.6294">MegaContainer()</text><polygon fill="#A80036" points="455,152.8281,445,156.8281,455,160.8281,451,156.8281" style="stroke: #A80036; stroke-width: 1.0;"/><line style="stroke: #A80036; stroke-width: 1.0; stroke-dasharray: 2.0,2.0;" x1="449" x2="643" y1="156.8281" y2="156.8281"/><text fill="#000000" font-family="sans-serif" font-size="13" lengthAdjust="spacingAndGlyphs" textLength="176" x="461" y="151.7622">returns new MegaContainer</text><polygon fill="#A80036" points="749,181.9609,759,185.9609,749,189.9609,753,185.9609" style="stroke: #A80036; stroke-width: 1.0;"/><line style="stroke: #A80036; stroke-width: 1.0;" x1="444" x2="755" y1="185.9609" y2="185.9609"/><text fill="#000000" font-family="sans-serif" font-size="13" lengthAdjust="spacingAndGlyphs" textLength="64" x="451" y="180.895">blockEm()</text><polygon fill="#A80036" points="455,211.0938,445,215.0938,455,219.0938,451,215.0938" style="stroke: #A80036; stroke-width: 1.0;"/><line style="stroke: #A80036; stroke-width: 1.0; stroke-dasharray: 2.0,2.0;" x1="449" x2="760" y1="215.0938" y2="215.0938"/><text fill="#000000" font-family="sans-serif" font-size="13" lengthAdjust="spacingAndGlyphs" textLength="198" x="461" y="210.0278">returns filled HashSet&lt;String&gt;</text><path d="M356.5,230.0938 L433.5,230.0938 L433.5,237.0938 L423.5,247.0938 L356.5,247.0938 L356.5,230.0938 " fill="#EEEEEE" style="stroke: #000000; stroke-width: 1.0;"/><rect fill="none" height="809.7188" style="stroke: #000000; stroke-width: 2.0;" width="956" x="356.5" y="230.0938"/><text fill="#000000" font-family="sans-serif" font-size="13" font-weight="bold" lengthAdjust="spacingAndGlyphs" textLength="32" x="371.5" y="243.1606">loop</text><polygon fill="#A80036" points="828.5,264.3594,838.5,268.3594,828.5,272.3594,832.5,268.3594" style="stroke: #A80036; stroke-width: 1.0;"/><line style="stroke: #A80036; stroke-width: 1.0;" x1="444" x2="834.5" y1="268.3594" y2="268.3594"/><text fill="#000000" font-family="sans-serif" font-size="13" lengthAdjust="spacingAndGlyphs" textLength="87" x="451" y="263.2935">classReader()</text><polygon fill="#A80036" points="455,293.4922,445,297.4922,455,301.4922,451,297.4922" style="stroke: #A80036; stroke-width: 1.0;"/><line style="stroke: #A80036; stroke-width: 1.0; stroke-dasharray: 2.0,2.0;" x1="449" x2="839.5" y1="297.4922" y2="297.4922"/><text fill="#000000" font-family="sans-serif" font-size="13" lengthAdjust="spacingAndGlyphs" textLength="156" x="461" y="292.4263">returns new classReader</text><polygon fill="#A80036" points="828.5,322.625,838.5,326.625,828.5,330.625,832.5,326.625" style="stroke: #A80036; stroke-width: 1.0;"/><line style="stroke: #A80036; stroke-width: 1.0;" x1="444" x2="834.5" y1="326.625" y2="326.625"/><text fill="#000000" font-family="sans-serif" font-size="13" lengthAdjust="spacingAndGlyphs" textLength="76" x="451" y="321.5591">classNode()</text><polygon fill="#A80036" points="455,351.7578,445,355.7578,455,359.7578,451,355.7578" style="stroke: #A80036; stroke-width: 1.0;"/><line style="stroke: #A80036; stroke-width: 1.0; stroke-dasharray: 2.0,2.0;" x1="449" x2="839.5" y1="355.7578" y2="355.7578"/><text fill="#000000" font-family="sans-serif" font-size="13" lengthAdjust="spacingAndGlyphs" textLength="145" x="461" y="350.6919">returns new classNode</text><polygon fill="#A80036" points="890,380.8906,900,384.8906,890,388.8906,894,384.8906" style="stroke: #A80036; stroke-width: 1.0;"/><line style="stroke: #A80036; stroke-width: 1.0;" x1="444" x2="896" y1="384.8906" y2="384.8906"/><text fill="#000000" font-family="sans-serif" font-size="13" lengthAdjust="spacingAndGlyphs" textLength="44" x="451" y="379.8247">Class()</text><polygon fill="#A80036" points="455,410.0234,445,414.0234,455,418.0234,451,414.0234" style="stroke: #A80036; stroke-width: 1.0;"/><line style="stroke: #A80036; stroke-width: 1.0; stroke-dasharray: 2.0,2.0;" x1="449" x2="901" y1="414.0234" y2="414.0234"/><text fill="#000000" font-family="sans-serif" font-size="13" lengthAdjust="spacingAndGlyphs" textLength="175" x="461" y="408.9575">returns new class container</text><path d="M376.5,429.0234 L453.5,429.0234 L453.5,436.0234 L443.5,446.0234 L376.5,446.0234 L376.5,429.0234 " fill="#EEEEEE" style="stroke: #000000; stroke-width: 1.0;"/><rect fill="none" height="191.9297" style="stroke: #000000; stroke-width: 2.0;" width="739" x="376.5" y="429.0234"/><text fill="#000000" font-family="sans-serif" font-size="13" font-weight="bold" lengthAdjust="spacingAndGlyphs" textLength="32" x="391.5" y="442.0903">loop</text><polygon fill="#A80036" points="851.5,463.2891,841.5,467.2891,851.5,471.2891,847.5,467.2891" style="stroke: #A80036; stroke-width: 1.0;"/><line style="stroke: #A80036; stroke-width: 1.0;" x1="845.5" x2="991.5" y1="467.2891" y2="467.2891"/><text fill="#000000" font-family="sans-serif" font-size="13" lengthAdjust="spacingAndGlyphs" textLength="87" x="857.5" y="462.2231">classReader()</text><polygon fill="#A80036" points="455,492.4219,445,496.4219,455,500.4219,451,496.4219" style="stroke: #A80036; stroke-width: 1.0;"/><line style="stroke: #A80036; stroke-width: 1.0; stroke-dasharray: 2.0,2.0;" x1="449" x2="839.5" y1="496.4219" y2="496.4219"/><text fill="#000000" font-family="sans-serif" font-size="13" lengthAdjust="spacingAndGlyphs" textLength="156" x="461" y="491.356">returns new classReader</text><polygon fill="#A80036" points="828.5,521.5547,838.5,525.5547,828.5,529.5547,832.5,525.5547" style="stroke: #A80036; stroke-width: 1.0;"/><line style="stroke: #A80036; stroke-width: 1.0;" x1="444" x2="834.5" y1="525.5547" y2="525.5547"/><text fill="#000000" font-family="sans-serif" font-size="13" lengthAdjust="spacingAndGlyphs" textLength="76" x="451" y="520.4888">classNode()</text><polygon fill="#A80036" points="455,550.6875,445,554.6875,455,558.6875,451,554.6875" style="stroke: #A80036; stroke-width: 1.0;"/><line style="stroke: #A80036; stroke-width: 1.0; stroke-dasharray: 2.0,2.0;" x1="449" x2="839.5" y1="554.6875" y2="554.6875"/><text fill="#000000" font-family="sans-serif" font-size="13" lengthAdjust="spacingAndGlyphs" textLength="145" x="461" y="549.6216">returns new classNode</text><polygon fill="#A80036" points="1068.5,579.8203,1078.5,583.8203,1068.5,587.8203,1072.5,583.8203" style="stroke: #A80036; stroke-width: 1.0;"/><line style="stroke: #A80036; stroke-width: 1.0;" x1="444" x2="1074.5" y1="583.8203" y2="583.8203"/><text fill="#000000" font-family="sans-serif" font-size="13" lengthAdjust="spacingAndGlyphs" textLength="39" x="451" y="578.7544">Field()</text><polygon fill="#A80036" points="455,608.9531,445,612.9531,455,616.9531,451,612.9531" style="stroke: #A80036; stroke-width: 1.0;"/><line style="stroke: #A80036; stroke-width: 1.0; stroke-dasharray: 2.0,2.0;" x1="449" x2="1079.5" y1="612.9531" y2="612.9531"/><text fill="#000000" font-family="sans-serif" font-size="13" lengthAdjust="spacingAndGlyphs" textLength="169" x="461" y="607.8872">returns new field container</text><path d="M366.5,634.9531 L443.5,634.9531 L443.5,641.9531 L433.5,651.9531 L366.5,651.9531 L366.5,634.9531 " fill="#EEEEEE" style="stroke: #000000; stroke-width: 1.0;"/><rect fill="none" height="397.8594" style="stroke: #000000; stroke-width: 2.0;" width="936" x="366.5" y="634.9531"/><text fill="#000000" font-family="sans-serif" font-size="13" font-weight="bold" lengthAdjust="spacingAndGlyphs" textLength="32" x="381.5" y="648.02">loop</text><polygon fill="#A80036" points="828.5,669.2188,838.5,673.2188,828.5,677.2188,832.5,673.2188" style="stroke: #A80036; stroke-width: 1.0;"/><line style="stroke: #A80036; stroke-width: 1.0;" x1="444" x2="834.5" y1="673.2188" y2="673.2188"/><text fill="#000000" font-family="sans-serif" font-size="13" lengthAdjust="spacingAndGlyphs" textLength="87" x="451" y="668.1528">classReader()</text><polygon fill="#A80036" points="455,698.3516,445,702.3516,455,706.3516,451,702.3516" style="stroke: #A80036; stroke-width: 1.0;"/><line style="stroke: #A80036; stroke-width: 1.0; stroke-dasharray: 2.0,2.0;" x1="449" x2="839.5" y1="702.3516" y2="702.3516"/><text fill="#000000" font-family="sans-serif" font-size="13" lengthAdjust="spacingAndGlyphs" textLength="156" x="461" y="697.2856">returns new classReader</text><polygon fill="#A80036" points="828.5,727.4844,838.5,731.4844,828.5,735.4844,832.5,731.4844" style="stroke: #A80036; stroke-width: 1.0;"/><line style="stroke: #A80036; stroke-width: 1.0;" x1="444" x2="834.5" y1="731.4844" y2="731.4844"/><text fill="#000000" font-family="sans-serif" font-size="13" lengthAdjust="spacingAndGlyphs" textLength="76" x="451" y="726.4185">classNode()</text><polygon fill="#A80036" points="455,756.6172,445,760.6172,455,764.6172,451,760.6172" style="stroke: #A80036; stroke-width: 1.0;"/><line style="stroke: #A80036; stroke-width: 1.0; stroke-dasharray: 2.0,2.0;" x1="449" x2="839.5" y1="760.6172" y2="760.6172"/><text fill="#000000" font-family="sans-serif" font-size="13" lengthAdjust="spacingAndGlyphs" textLength="145" x="461" y="755.5513">returns new classNode</text><polygon fill="#A80036" points="1139,785.75,1149,789.75,1139,793.75,1143,789.75" style="stroke: #A80036; stroke-width: 1.0;"/><line style="stroke: #A80036; stroke-width: 1.0;" x1="444" x2="1145" y1="789.75" y2="789.75"/><text fill="#000000" font-family="sans-serif" font-size="13" lengthAdjust="spacingAndGlyphs" textLength="58" x="451" y="784.6841">Method()</text><polygon fill="#A80036" points="455,814.8828,445,818.8828,455,822.8828,451,818.8828" style="stroke: #A80036; stroke-width: 1.0;"/><line style="stroke: #A80036; stroke-width: 1.0; stroke-dasharray: 2.0,2.0;" x1="449" x2="1150" y1="818.8828" y2="818.8828"/><text fill="#000000" font-family="sans-serif" font-size="13" lengthAdjust="spacingAndGlyphs" textLength="193" x="461" y="813.8169">returns new method container</text><path d="M376.5,833.8828 L453.5,833.8828 L453.5,840.8828 L443.5,850.8828 L376.5,850.8828 L376.5,833.8828 " fill="#EEEEEE" style="stroke: #000000; stroke-width: 1.0;"/><rect fill="none" height="191.9297" style="stroke: #000000; stroke-width: 2.0;" width="916" x="376.5" y="833.8828"/><text fill="#000000" font-family="sans-serif" font-size="13" font-weight="bold" lengthAdjust="spacingAndGlyphs" textLength="32" x="391.5" y="846.9497">loop</text><polygon fill="#A80036" points="828.5,868.1484,838.5,872.1484,828.5,876.1484,832.5,872.1484" style="stroke: #A80036; stroke-width: 1.0;"/><line style="stroke: #A80036; stroke-width: 1.0;" x1="444" x2="834.5" y1="872.1484" y2="872.1484"/><text fill="#000000" font-family="sans-serif" font-size="13" lengthAdjust="spacingAndGlyphs" textLength="87" x="451" y="867.0825">classReader()</text><polygon fill="#A80036" points="455,897.2813,445,901.2813,455,905.2813,451,901.2813" style="stroke: #A80036; stroke-width: 1.0;"/><line style="stroke: #A80036; stroke-width: 1.0; stroke-dasharray: 2.0,2.0;" x1="449" x2="839.5" y1="901.2813" y2="901.2813"/><text fill="#000000" font-family="sans-serif" font-size="13" lengthAdjust="spacingAndGlyphs" textLength="156" x="461" y="896.2153">returns new classReader</text><polygon fill="#A80036" points="828.5,926.4141,838.5,930.4141,828.5,934.4141,832.5,930.4141" style="stroke: #A80036; stroke-width: 1.0;"/><line style="stroke: #A80036; stroke-width: 1.0;" x1="444" x2="834.5" y1="930.4141" y2="930.4141"/><text fill="#000000" font-family="sans-serif" font-size="13" lengthAdjust="spacingAndGlyphs" textLength="76" x="451" y="925.3481">classNode()</text><polygon fill="#A80036" points="455,955.5469,445,959.5469,455,963.5469,451,959.5469" style="stroke: #A80036; stroke-width: 1.0;"/><line style="stroke: #A80036; stroke-width: 1.0; stroke-dasharray: 2.0,2.0;" x1="449" x2="839.5" y1="959.5469" y2="959.5469"/><text fill="#000000" font-family="sans-serif" font-size="13" lengthAdjust="spacingAndGlyphs" textLength="145" x="461" y="954.481">returns new classNode</text><polygon fill="#A80036" points="1227.5,984.6797,1237.5,988.6797,1227.5,992.6797,1231.5,988.6797" style="stroke: #A80036; stroke-width: 1.0;"/><line style="stroke: #A80036; stroke-width: 1.0;" x1="444" x2="1233.5" y1="988.6797" y2="988.6797"/><text fill="#000000" font-family="sans-serif" font-size="13" lengthAdjust="spacingAndGlyphs" textLength="74" x="451" y="983.6138">Argument()</text><polygon fill="#A80036" points="455,1013.8125,445,1017.8125,455,1021.8125,451,1017.8125" style="stroke: #A80036; stroke-width: 1.0;"/><line style="stroke: #A80036; stroke-width: 1.0; stroke-dasharray: 2.0,2.0;" x1="449" x2="1238.5" y1="1017.8125" y2="1017.8125"/><text fill="#000000" font-family="sans-serif" font-size="13" lengthAdjust="spacingAndGlyphs" textLength="206" x="461" y="1012.7466">returns new argument container</text><path d="M356.5,1053.8125 L433.5,1053.8125 L433.5,1060.8125 L423.5,1070.8125 L356.5,1070.8125 L356.5,1053.8125 " fill="#EEEEEE" style="stroke: #000000; stroke-width: 1.0;"/><rect fill="none" height="603.7891" style="stroke: #000000; stroke-width: 2.0;" width="1024" x="356.5" y="1053.8125"/><text fill="#000000" font-family="sans-serif" font-size="13" font-weight="bold" lengthAdjust="spacingAndGlyphs" textLength="32" x="371.5" y="1066.8794">loop</text><polygon fill="#A80036" points="828.5,1088.0781,838.5,1092.0781,828.5,1096.0781,832.5,1092.0781" style="stroke: #A80036; stroke-width: 1.0;"/><line style="stroke: #A80036; stroke-width: 1.0;" x1="444" x2="834.5" y1="1092.0781" y2="1092.0781"/><text fill="#000000" font-family="sans-serif" font-size="13" lengthAdjust="spacingAndGlyphs" textLength="87" x="451" y="1087.0122">classReader()</text><polygon fill="#A80036" points="455,1117.2109,445,1121.2109,455,1125.2109,451,1121.2109" style="stroke: #A80036; stroke-width: 1.0;"/><line style="stroke: #A80036; stroke-width: 1.0; stroke-dasharray: 2.0,2.0;" x1="449" x2="839.5" y1="1121.2109" y2="1121.2109"/><text fill="#000000" font-family="sans-serif" font-size="13" lengthAdjust="spacingAndGlyphs" textLength="156" x="461" y="1116.145">returns new classReader</text><polygon fill="#A80036" points="828.5,1146.3438,838.5,1150.3438,828.5,1154.3438,832.5,1150.3438" style="stroke: #A80036; stroke-width: 1.0;"/><line style="stroke: #A80036; stroke-width: 1.0;" x1="444" x2="834.5" y1="1150.3438" y2="1150.3438"/><text fill="#000000" font-family="sans-serif" font-size="13" lengthAdjust="spacingAndGlyphs" textLength="76" x="451" y="1145.2778">classNode()</text><polygon fill="#A80036" points="455,1175.4766,445,1179.4766,455,1183.4766,451,1179.4766" style="stroke: #A80036; stroke-width: 1.0;"/><line style="stroke: #A80036; stroke-width: 1.0; stroke-dasharray: 2.0,2.0;" x1="449" x2="839.5" y1="1179.4766" y2="1179.4766"/><text fill="#000000" font-family="sans-serif" font-size="13" lengthAdjust="spacingAndGlyphs" textLength="145" x="461" y="1174.4106">returns new classNode</text><polygon fill="#A80036" points="1319.5,1204.6094,1329.5,1208.6094,1319.5,1212.6094,1323.5,1208.6094" style="stroke: #A80036; stroke-width: 1.0;"/><line style="stroke: #A80036; stroke-width: 1.0;" x1="444" x2="1325.5" y1="1208.6094" y2="1208.6094"/><text fill="#000000" font-family="sans-serif" font-size="13" lengthAdjust="spacingAndGlyphs" textLength="66" x="451" y="1203.5435">Interface()</text><polygon fill="#A80036" points="455,1233.7422,445,1237.7422,455,1241.7422,451,1237.7422" style="stroke: #A80036; stroke-width: 1.0;"/><line style="stroke: #A80036; stroke-width: 1.0; stroke-dasharray: 2.0,2.0;" x1="449" x2="1330.5" y1="1237.7422" y2="1237.7422"/><text fill="#000000" font-family="sans-serif" font-size="13" lengthAdjust="spacingAndGlyphs" textLength="199" x="461" y="1232.6763">returns new Interface container</text><path d="M366.5,1252.7422 L443.5,1252.7422 L443.5,1259.7422 L433.5,1269.7422 L366.5,1269.7422 L366.5,1252.7422 " fill="#EEEEEE" style="stroke: #000000; stroke-width: 1.0;"/><rect fill="none" height="397.8594" style="stroke: #000000; stroke-width: 2.0;" width="936" x="366.5" y="1252.7422"/><text fill="#000000" font-family="sans-serif" font-size="13" font-weight="bold" lengthAdjust="spacingAndGlyphs" textLength="32" x="381.5" y="1265.8091">loop</text><polygon fill="#A80036" points="828.5,1287.0078,838.5,1291.0078,828.5,1295.0078,832.5,1291.0078" style="stroke: #A80036; stroke-width: 1.0;"/><line style="stroke: #A80036; stroke-width: 1.0;" x1="444" x2="834.5" y1="1291.0078" y2="1291.0078"/><text fill="#000000" font-family="sans-serif" font-size="13" lengthAdjust="spacingAndGlyphs" textLength="87" x="451" y="1285.9419">classReader()</text><polygon fill="#A80036" points="455,1316.1406,445,1320.1406,455,1324.1406,451,1320.1406" style="stroke: #A80036; stroke-width: 1.0;"/><line style="stroke: #A80036; stroke-width: 1.0; stroke-dasharray: 2.0,2.0;" x1="449" x2="839.5" y1="1320.1406" y2="1320.1406"/><text fill="#000000" font-family="sans-serif" font-size="13" lengthAdjust="spacingAndGlyphs" textLength="156" x="461" y="1315.0747">returns new classReader</text><polygon fill="#A80036" points="828.5,1345.2734,838.5,1349.2734,828.5,1353.2734,832.5,1349.2734" style="stroke: #A80036; stroke-width: 1.0;"/><line style="stroke: #A80036; stroke-width: 1.0;" x1="444" x2="834.5" y1="1349.2734" y2="1349.2734"/><text fill="#000000" font-family="sans-serif" font-size="13" lengthAdjust="spacingAndGlyphs" textLength="76" x="451" y="1344.2075">classNode()</text><polygon fill="#A80036" points="455,1374.4063,445,1378.4063,455,1382.4063,451,1378.4063" style="stroke: #A80036; stroke-width: 1.0;"/><line style="stroke: #A80036; stroke-width: 1.0; stroke-dasharray: 2.0,2.0;" x1="449" x2="839.5" y1="1378.4063" y2="1378.4063"/><text fill="#000000" font-family="sans-serif" font-size="13" lengthAdjust="spacingAndGlyphs" textLength="145" x="461" y="1373.3403">returns new classNode</text><polygon fill="#A80036" points="1139,1403.5391,1149,1407.5391,1139,1411.5391,1143,1407.5391" style="stroke: #A80036; stroke-width: 1.0;"/><line style="stroke: #A80036; stroke-width: 1.0;" x1="444" x2="1145" y1="1407.5391" y2="1407.5391"/><text fill="#000000" font-family="sans-serif" font-size="13" lengthAdjust="spacingAndGlyphs" textLength="58" x="451" y="1402.4731">Method()</text><polygon fill="#A80036" points="455,1432.6719,445,1436.6719,455,1440.6719,451,1436.6719" style="stroke: #A80036; stroke-width: 1.0;"/><line style="stroke: #A80036; stroke-width: 1.0; stroke-dasharray: 2.0,2.0;" x1="449" x2="1150" y1="1436.6719" y2="1436.6719"/><text fill="#000000" font-family="sans-serif" font-size="13" lengthAdjust="spacingAndGlyphs" textLength="193" x="461" y="1431.606">returns new method container</text><path d="M376.5,1451.6719 L453.5,1451.6719 L453.5,1458.6719 L443.5,1468.6719 L376.5,1468.6719 L376.5,1451.6719 " fill="#EEEEEE" style="stroke: #000000; stroke-width: 1.0;"/><rect fill="none" height="191.9297" style="stroke: #000000; stroke-width: 2.0;" width="916" x="376.5" y="1451.6719"/><text fill="#000000" font-family="sans-serif" font-size="13" font-weight="bold" lengthAdjust="spacingAndGlyphs" textLength="32" x="391.5" y="1464.7388">loop</text><polygon fill="#A80036" points="828.5,1485.9375,838.5,1489.9375,828.5,1493.9375,832.5,1489.9375" style="stroke: #A80036; stroke-width: 1.0;"/><line style="stroke: #A80036; stroke-width: 1.0;" x1="444" x2="834.5" y1="1489.9375" y2="1489.9375"/><text fill="#000000" font-family="sans-serif" font-size="13" lengthAdjust="spacingAndGlyphs" textLength="87" x="451" y="1484.8716">classReader()</text><polygon fill="#A80036" points="455,1515.0703,445,1519.0703,455,1523.0703,451,1519.0703" style="stroke: #A80036; stroke-width: 1.0;"/><line style="stroke: #A80036; stroke-width: 1.0; stroke-dasharray: 2.0,2.0;" x1="449" x2="839.5" y1="1519.0703" y2="1519.0703"/><text fill="#000000" font-family="sans-serif" font-size="13" lengthAdjust="spacingAndGlyphs" textLength="156" x="461" y="1514.0044">returns new classReader</text><polygon fill="#A80036" points="828.5,1544.2031,838.5,1548.2031,828.5,1552.2031,832.5,1548.2031" style="stroke: #A80036; stroke-width: 1.0;"/><line style="stroke: #A80036; stroke-width: 1.0;" x1="444" x2="834.5" y1="1548.2031" y2="1548.2031"/><text fill="#000000" font-family="sans-serif" font-size="13" lengthAdjust="spacingAndGlyphs" textLength="76" x="451" y="1543.1372">classNode()</text><polygon fill="#A80036" points="455,1573.3359,445,1577.3359,455,1581.3359,451,1577.3359" style="stroke: #A80036; stroke-width: 1.0;"/><line style="stroke: #A80036; stroke-width: 1.0; stroke-dasharray: 2.0,2.0;" x1="449" x2="839.5" y1="1577.3359" y2="1577.3359"/><text fill="#000000" font-family="sans-serif" font-size="13" lengthAdjust="spacingAndGlyphs" textLength="145" x="461" y="1572.27">returns new classNode</text><polygon fill="#A80036" points="1227.5,1602.4688,1237.5,1606.4688,1227.5,1610.4688,1231.5,1606.4688" style="stroke: #A80036; stroke-width: 1.0;"/><line style="stroke: #A80036; stroke-width: 1.0;" x1="444" x2="1233.5" y1="1606.4688" y2="1606.4688"/><text fill="#000000" font-family="sans-serif" font-size="13" lengthAdjust="spacingAndGlyphs" textLength="74" x="451" y="1601.4028">Argument()</text><polygon fill="#A80036" points="455,1631.6016,445,1635.6016,455,1639.6016,451,1635.6016" style="stroke: #A80036; stroke-width: 1.0;"/><line style="stroke: #A80036; stroke-width: 1.0; stroke-dasharray: 2.0,2.0;" x1="449" x2="1238.5" y1="1635.6016" y2="1635.6016"/><text fill="#000000" font-family="sans-serif" font-size="13" lengthAdjust="spacingAndGlyphs" textLength="193" x="461" y="1630.5356">returns new method container</text><polygon fill="#A80036" points="432,1681.7344,442,1685.7344,432,1689.7344,436,1685.7344" style="stroke: #A80036; stroke-width: 1.0;"/><line style="stroke: #A80036; stroke-width: 1.0;" x1="240" x2="438" y1="1685.7344" y2="1685.7344"/><text fill="#000000" font-family="sans-serif" font-size="13" lengthAdjust="spacingAndGlyphs" textLength="59" x="247" y="1680.6685">retrieve()</text><polygon fill="#A80036" points="251,1710.8672,241,1714.8672,251,1718.8672,247,1714.8672" style="stroke: #A80036; stroke-width: 1.0;"/><line style="stroke: #A80036; stroke-width: 1.0; stroke-dasharray: 2.0,2.0;" x1="245" x2="443" y1="1714.8672" y2="1714.8672"/><text fill="#000000" font-family="sans-serif" font-size="13" lengthAdjust="spacingAndGlyphs" textLength="180" x="257" y="1709.8013">returns filled MegaContainer</text><polygon fill="#A80036" points="1461,1740,1471,1744,1461,1748,1465,1744" style="stroke: #A80036; stroke-width: 1.0;"/><line style="stroke: #A80036; stroke-width: 1.0;" x1="240" x2="1467" y1="1744" y2="1744"/><text fill="#000000" font-family="sans-serif" font-size="13" lengthAdjust="spacingAndGlyphs" textLength="137" x="247" y="1738.9341">constructFinalString()</text><polygon fill="#A80036" points="251,1769.1328,241,1773.1328,251,1777.1328,247,1773.1328" style="stroke: #A80036; stroke-width: 1.0;"/><line style="stroke: #A80036; stroke-width: 1.0; stroke-dasharray: 2.0,2.0;" x1="245" x2="1472" y1="1773.1328" y2="1773.1328"/><text fill="#000000" font-family="sans-serif" font-size="13" lengthAdjust="spacingAndGlyphs" textLength="203" x="257" y="1768.0669">returns String of PlantUML code</text><polygon fill="#A80036" points="1602.5,1798.2656,1612.5,1802.2656,1602.5,1806.2656,1606.5,1802.2656" style="stroke: #A80036; stroke-width: 1.0;"/><line style="stroke: #A80036; stroke-width: 1.0;" x1="240" x2="1608.5" y1="1802.2656" y2="1802.2656"/><text fill="#000000" font-family="sans-serif" font-size="13" lengthAdjust="spacingAndGlyphs" textLength="124" x="247" y="1797.1997">writeText(fileName)</text><polygon fill="#A80036" points="44,1827.3984,34,1831.3984,44,1835.3984,40,1831.3984" style="stroke: #A80036; stroke-width: 1.0;"/><line style="stroke: #A80036; stroke-width: 1.0; stroke-dasharray: 2.0,2.0;" x1="38" x2="239" y1="1831.3984" y2="1831.3984"/><text fill="#000000" font-family="sans-serif" font-size="13" lengthAdjust="spacingAndGlyphs" textLength="183" x="50" y="1826.3325">Progam returns as complete</text><!--MD5=[c4688067027f32b0f82c27945796da32]
@startuml
Main -> ConstructParser : beginParsing()

ConstructParser -> ASMController : ASMController()

ASMController -> MegaContainer : MegaContainer()
MegaContainer - -> ASMController : returns new MegaContainer

ASMController -> FileReader : blockEm()
FileReader - -> ASMController : returns filled HashSet<String>

loop 
ASMController -> ASM : classReader()
ASM - -> ASMController : returns new classReader

ASMController -> ASM : classNode()
ASM - -> ASMController : returns new classNode

ASMController -> Class : Class()
Class - -> ASMController : returns new class container

loop
SMController -> ASM : classReader()
ASM - -> ASMController : returns new classReader

ASMController -> ASM : classNode()
ASM - -> ASMController : returns new classNode

ASMController -> Field: Field()
Field- -> ASMController : returns new field container
end

loop 
ASMController -> ASM : classReader()
ASM - -> ASMController : returns new classReader

ASMController -> ASM : classNode()
ASM - -> ASMController : returns new classNode

ASMController -> Method: Method()
Method- -> ASMController : returns new method container

loop 
ASMController -> ASM : classReader()
ASM - -> ASMController : returns new classReader

ASMController -> ASM : classNode()
ASM - -> ASMController : returns new classNode

ASMController -> Argument: Argument()
Argument - -> ASMController : returns new argument container
end
end
end


loop 
ASMController -> ASM : classReader()
ASM - -> ASMController : returns new classReader

ASMController -> ASM : classNode()
ASM - -> ASMController : returns new classNode

ASMController -> Interface : Interface()
Interface - -> ASMController : returns new Interface container

loop 
ASMController -> ASM : classReader()
ASM - -> ASMController : returns new classReader

ASMController -> ASM : classNode()
ASM - -> ASMController : returns new classNode

ASMController -> Method: Method()
Method- -> ASMController : returns new method container

loop 
ASMController -> ASM : classReader()
ASM - -> ASMController : returns new classReader

ASMController -> ASM : classNode()
ASM - -> ASMController : returns new classNode

ASMController -> Argument: Argument()
Argument - -> ASMController : returns new method container
end
end
end

ConstructParser -> ASMController : retrieve()
ASMController - -> ConstructParser : returns filled MegaContainer

ConstructParser -> DiagramUMLforPlantUML : constructFinalString()
DiagramUMLforPlantUML - -> ConstructParser : returns String of PlantUML code

ConstructParser -> LogWrite : writeText(fileName)

ConstructParser - -> Main : Progam returns as complete
@enduml

PlantUML version 1.2020.01beta5(Unknown compile time)
(GPL source distribution)
Java Runtime: Java(TM) SE Runtime Environment
JVM: Java HotSpot(TM) 64-Bit Server VM
Java Version: 1.7.0_25-b15
Operating System: Linux
Default Encoding: UTF-8
Language: en
Country: US
--></g></svg>